<?xml version="1.0" encoding="UTF-8"?>
<svg id="b" data-name="Layer 2" xmlns="http://www.w3.org/2000/svg" viewBox="0 0 67.13 115">
  <defs>
    <style>
      .d {
        fill: #eeeef0;
      }
    </style>
  </defs>
  <g id="c" data-name="Layer 1">
    <path class="d" d="m66.06,53.77c-2.66-4.08-7.45-3.04-11.67-3.1-6.36.36-13.89,1.6-9.44-7.42,2.81-7.1,5.11-14.38,7.84-21.51,1.87-5.6,5.98-11.3,4.39-17.39-.82-2.59-3.39-4.67-6.31-4.32-3.38.53-5.19,3.29-7.19,5.64-4.12,4.92-8.55,9.84-12.86,14.56-7.73,8.55-15.47,17.09-23.2,25.64-1.31,1.45-2.63,2.9-3.94,4.35-1.59,1.76-3.56,3.45-3.67,5.92-.11,2.42.85,4.64,2.92,6.12,3.74,2.55,8.59,1.72,12.92,1.76,2.13-.11,4.54-.18,6.47.83,2.67,1.41,1.08,4.5.38,6.56-1.02,3-2.06,5.98-3.13,8.96-2.73,7.67-5.65,15.28-8.82,22.79-1.19,3.17-2.51,8.17.67,10.73,2.34,1.88,5.86,1.14,7.99-.67,14.21-15.47,27.89-31.52,42.38-46.79,3.36-3.17,7.26-8.14,4.27-12.67Z"/>
  </g>
</svg>