<svg viewBox="0 0 100 60" fill="none" xmlns="http://www.w3.org/2000/svg">
<path d="M17.5 30C17.5 27.9688 15.7812 26.25 13.75 26.25H3.75C1.5625 26.25 0 27.9688 0 30C0 32.1875 1.5625 33.75 3.75 33.75H13.75C15.7812 33.75 17.5 32.1875 17.5 30ZM20.4688 8.75L11.7188 3.75C11.25 3.4375 10.3125 3.125 9.84375 3.125C7.8125 3.125 6.09375 4.84375 6.09375 6.875C6.09375 8.125 6.875 9.53125 7.96875 10.1562L16.7188 15.1562C17.1875 15.4688 17.9688 15.7812 18.5938 15.7812C20.625 15.7812 22.3438 14.0625 22.3438 12.0312C22.3438 10.7812 21.4062 9.375 20.4688 8.75ZM81.25 15.625C81.875 15.625 82.6562 15.4688 83.125 15.1562L91.875 10.1562C92.8125 9.53125 93.5938 8.125 93.5938 7.03125C93.5938 4.84375 92.0312 3.28125 89.8438 3.28125C89.375 3.28125 88.5938 3.4375 88.125 3.75L79.375 8.75C78.4375 9.375 77.5 10.7812 77.5 11.875C77.5 14.0625 79.2188 15.625 81.25 15.625ZM96.25 26.25H86.25C84.0625 26.25 82.5 27.9688 82.5 30C82.5 32.1875 84.0625 33.75 86.25 33.75H96.25C98.2812 33.75 100 32.1875 100 30C100 27.9688 98.2812 26.25 96.25 26.25ZM50 0C33.9062 0 22.5 12.9688 22.5 27.5V27.6562C22.5 33.2812 25.4688 41.4062 29.2188 45.625C31.875 48.5938 35.9375 54.8438 37.3438 60H44.8438C44.8438 59.375 44.8438 58.4375 44.5312 57.8125C43.75 55 41.0938 47.8125 34.8438 40.7812C32.1875 37.6562 30 31.7188 30 27.6562V27.5C29.8438 16.0938 39.2188 7.5 50 7.5C60.9375 7.5 69.8438 16.5625 69.8438 27.5C69.8438 31.7188 67.6562 37.6562 65 40.7812C58.9062 47.6562 56.0938 55 55.3125 57.8125C55.1562 58.4375 55 59.375 55 60H62.5C63.9062 54.8438 67.9688 48.5938 70.625 45.625C74.375 41.4062 77.5 33.2812 77.5 27.5C77.5 12.3438 65.1562 0 50 0ZM50 12.5C41.7188 12.6562 35 19.375 35 27.5C35 28.9062 36.0938 30 37.5 30C38.75 30 40 28.9062 40 27.5C40 22.0312 44.375 17.6562 50 17.5C51.25 17.5 52.5 16.4062 52.5 15C52.5 13.75 51.25 12.5 50 12.5Z" fill="#F4B945"/>
</svg>
