<svg xmlns="http://www.w3.org/2000/svg" viewBox="0 0 121.57 60.53">
  <g id="Layer_2" data-name="Layer 2">
    <g id="Layer_1-2" data-name="Layer 1">
      <path d="M121.46,26.7,115.31,2.63a3.49,3.49,0,0,0-1.72-2.2,3.46,3.46,0,0,0-2.78-.25L87.25,8.06a3.48,3.48,0,0,0-2,1.76A3.44,3.44,0,0,0,85,12.49a3.49,3.49,0,0,0,4.43,2.21l15.11-5-22.36,41a5.46,5.46,0,0,1-4.79,2.84H3.62A3.59,3.59,0,0,0,.1,56.18a3.5,3.5,0,0,0,3.4,4.35H79.17a9.5,9.5,0,0,0,8.36-5L110.73,13l3.94,15.44A3.5,3.5,0,0,0,118.93,31,3.52,3.52,0,0,0,121.46,26.7Z" style="fill: #f3b945"/>
    </g>
  </g>
</svg>
