<svg width="512" height="148" viewBox="0 0 512 148" fill="none" xmlns="http://www.w3.org/2000/svg">
<path d="M68 15H500V140C500 144.418 496.418 148 492 148H68V15Z" fill="#F9F9F9"/>
<rect x="177" y="51" width="294" height="14" rx="7" fill="#D5D5D5"/>
<circle cx="74" cy="74" r="74" fill="url(#paint0_linear_547_1)"/>
<rect x="177" y="80" width="189" height="9" rx="4.5" fill="#D5D5D5"/>
<rect x="177" y="103" width="189" height="9" rx="4.5" fill="#D5D5D5"/>
<path d="M75 0H493C497.418 0 501 3.58172 501 8V28H75V0Z" fill="url(#paint1_linear_547_1)"/>
<circle cx="492.5" cy="19.5" r="15.5" transform="rotate(90 492.5 19.5)" fill="#F9F9F9" stroke="url(#paint2_linear_547_1)" stroke-width="8"/>
<path d="M92.75 36.375L83.375 41.0625L74 36.375L64.625 41.0625L55.25 36.375V50.4375H92.75V36.375ZM87.0371 80.9062H84.5469C81.3242 82.5176 77.8086 83.25 74 83.25C70.0449 83.25 66.5293 82.5176 63.3066 80.9062H60.8164C49.9766 80.9062 41.1875 89.8418 41.1875 100.682V104.344C41.1875 108.299 44.2637 111.375 48.2188 111.375H99.7812C103.59 111.375 106.812 108.299 106.812 104.344V100.682C106.812 89.8418 97.877 80.9062 87.0371 80.9062ZM74 76.2188C84.2539 76.2188 92.75 67.8691 92.75 57.4688V55.125H55.25V57.4688C55.25 67.8691 63.5996 76.2188 74 76.2188Z" fill="#F9F9F9"/>
<path d="M465.734 102.719L469.641 104.359L471.281 108.266C471.359 108.422 471.516 108.578 471.75 108.578C471.906 108.578 472.062 108.422 472.141 108.266L473.781 104.359L477.688 102.719C477.844 102.641 477.922 102.484 477.922 102.328C477.922 102.094 477.844 101.938 477.688 101.859L473.781 100.219L472.141 96.3125C472.062 96.1562 471.906 96 471.75 96C471.516 96 471.359 96.1562 471.281 96.3125L469.641 100.219L465.734 101.859C465.578 101.938 465.5 102.094 465.5 102.328C465.5 102.484 465.578 102.641 465.734 102.719ZM485.266 113.188L482.141 111.859L480.812 108.734C480.734 108.656 480.578 108.578 480.5 108.578C480.344 108.578 480.188 108.656 480.109 108.734L478.781 111.859L475.656 113.188C475.578 113.266 475.5 113.422 475.5 113.578C475.5 113.656 475.578 113.812 475.656 113.891L478.781 115.219L480.109 118.344C480.188 118.422 480.344 118.578 480.5 118.578C480.578 118.578 480.734 118.422 480.812 118.344L482.141 115.219L485.266 113.891C485.344 113.812 485.5 113.656 485.5 113.578C485.5 113.422 485.344 113.266 485.266 113.188ZM473.938 116.938L465.734 115.766L462.062 108.266C461.828 107.719 461.047 107.328 460.5 107.328H460.422C459.797 107.328 459.094 107.719 458.859 108.266L455.188 115.766L446.984 116.938C445.5 117.172 444.953 118.969 445.969 119.984L451.906 125.766L450.5 133.969C450.344 135.062 451.281 136 452.297 136C452.531 136 452.922 135.922 453.156 135.844L460.422 131.938L467.766 135.844C468 135.922 468.391 136.078 468.625 136.078C469.641 136.078 470.422 135.219 470.422 134.281C470.422 134.203 470.422 134.047 470.422 133.969L469.016 125.766L474.953 119.984C475.969 118.969 475.422 117.172 473.938 116.938ZM464.953 124.438L466.047 130.688L460.422 127.719L454.875 130.688L455.969 124.438L451.438 120.062L457.688 119.125L460.422 113.5L463.234 119.125L469.484 120.062L464.953 124.438Z" fill="#F4B945"/>
<defs>
<linearGradient id="paint0_linear_547_1" x1="0" y1="0" x2="148" y2="148" gradientUnits="userSpaceOnUse">
<stop stop-color="#812A80"/>
<stop offset="1" stop-color="#9F1F64"/>
</linearGradient>
<linearGradient id="paint1_linear_547_1" x1="75" y1="0" x2="78.6649" y2="55.7591" gradientUnits="userSpaceOnUse">
<stop stop-color="#812A80"/>
<stop offset="1" stop-color="#9F1F64"/>
</linearGradient>
<linearGradient id="paint2_linear_547_1" x1="475.487" y1="-16.6096" x2="500.352" y2="53.5119" gradientUnits="userSpaceOnUse">
<stop stop-color="#812A80"/>
<stop offset="1" stop-color="#9F1F64"/>
</linearGradient>
</defs>
</svg>
