<svg width="1025" height="804" viewBox="0 0 1025 804" fill="none" xmlns="http://www.w3.org/2000/svg">
<g clip-path="url(#clip0)">
<rect width="1025" height="804" fill="white"/>
<rect y="-36" width="80" height="791" fill="#F9F9F9"/>
<rect x="1025" y="755" width="49" height="1025" transform="rotate(90 1025 755)" fill="#E8E8E8"/>
<rect y="135" width="80" height="36" fill="#D5D5D5"/>
<circle cx="40" cy="104" r="16" fill="#E8E8E8"/>
<circle cx="40" cy="202" r="16" fill="#E8E8E8"/>
<circle cx="40" cy="252" r="16" fill="#E8E8E8"/>
<circle cx="40" cy="710" r="25" fill="#E8E8E8"/>
<rect x="117" y="30" width="189" height="9" rx="4.5" fill="#D5D5D5"/>
<rect x="760" y="625" width="189" height="9" rx="4.5" fill="#D5D5D5"/>
<rect x="760" y="648" width="189" height="9" rx="4.5" fill="#D5D5D5"/>
<rect x="760" y="671" width="189" height="9" rx="4.5" fill="#D5D5D5"/>
<path d="M37.2682 17.0331L41.5441 37.4007C41.5947 37.679 41.7971 37.9068 42.0501 38.008L50.1719 36.4393C50.6273 36.6164 50.8297 37.173 50.6273 37.6284L37.0657 62.1708C36.6356 63.0057 37.6477 63.8154 38.3814 63.2081L56.143 53.7454C56.3454 53.5936 56.4466 53.3659 56.4466 53.1129V25.8886C56.4466 25.5597 56.2695 25.2561 55.9912 25.1043L38.5079 16.097C37.8501 15.7681 37.1163 16.3247 37.2682 17.0331Z" fill="#D4D4D4"/>
<path d="M19 26.4706V53.7455C19 54.0238 19.1265 54.2768 19.3542 54.4286L31.4989 57.566C32.0808 57.9961 32.8905 57.5407 32.8652 56.8322L31.0688 46.6611C31.0435 46.3322 30.8663 46.0538 30.5627 45.9273L23.2253 48.1539C22.7952 47.9514 22.6181 47.4454 22.8205 47.0153L33.0676 22.8019C33.3712 22.144 32.7892 21.4356 32.1061 21.5874L19.6831 25.6356C19.2783 25.7115 19 26.0658 19 26.4706Z" fill="#D4D4D4"/>
<rect x="121" y="92" width="402" height="617" rx="8" fill="white" stroke="#E8E8E8" stroke-width="8"/>
<path d="M206 252H482V329C482 333.418 478.418 337 474 337H206V252Z" fill="#F9F9F9"/>
<rect x="275" y="275" width="188" height="9" rx="4.5" fill="#D5D5D5"/>
<circle cx="209.5" cy="289.5" r="47.5" fill="#E8E8E8"/>
<path d="M210 242H474C478.418 242 482 245.582 482 250V260H210V242Z" fill="#E8E8E8"/>
<circle cx="472.5" cy="254.5" r="10.5" fill="#F9F9F9" stroke="#E8E8E8" stroke-width="4"/>
<path d="M206 364H482V441C482 445.418 478.418 449 474 449H206V364Z" fill="#F9F9F9"/>
<rect x="275" y="387" width="188" height="9" rx="4.5" fill="#D5D5D5"/>
<circle cx="209.5" cy="401.5" r="47.5" fill="#E8E8E8"/>
<path d="M210 354H474C478.418 354 482 357.582 482 362V372H210V354Z" fill="#E8E8E8"/>
<circle cx="472.5" cy="366.5" r="10.5" fill="#F9F9F9" stroke="#E8E8E8" stroke-width="4"/>
<path d="M206 477H482V554C482 558.418 478.418 562 474 562H206V477Z" fill="#F9F9F9"/>
<rect x="275" y="500" width="188" height="9" rx="4.5" fill="#D5D5D5"/>
<circle cx="209.5" cy="514.5" r="47.5" fill="#E8E8E8"/>
<path d="M210 467H474C478.418 467 482 470.582 482 475V485H210V467Z" fill="#E8E8E8"/>
<circle cx="472.5" cy="479.5" r="10.5" fill="#F9F9F9" stroke="#E8E8E8" stroke-width="4"/>
<path d="M206 590H482V667C482 671.418 478.418 675 474 675H206V590Z" fill="#F9F9F9"/>
<rect x="275" y="613" width="188" height="9" rx="4.5" fill="#D5D5D5"/>
<circle cx="209.5" cy="627.5" r="47.5" fill="#E8E8E8"/>
<path d="M210 580H474C478.418 580 482 583.582 482 588V598H210V580Z" fill="#E8E8E8"/>
<circle cx="472.5" cy="592.5" r="10.5" fill="#F9F9F9" stroke="#E8E8E8" stroke-width="4"/>
<rect x="954" y="156" width="220" height="40" rx="6" transform="rotate(90 954 156)" fill="#F9F9F9"/>
<rect x="754" y="156" width="220" height="40" rx="6" transform="rotate(90 754 156)" fill="#F9F9F9"/>
<rect x="704" y="156" width="220" height="40" rx="6" transform="rotate(90 704 156)" fill="#F9F9F9"/>
<rect x="654" y="156" width="220" height="40" rx="6" transform="rotate(90 654 156)" fill="#F9F9F9"/>
<rect x="854" y="156" width="220" height="40" rx="6" transform="rotate(90 854 156)" fill="#F9F9F9"/>
<rect x="904" y="156" width="220" height="40" rx="6" transform="rotate(90 904 156)" fill="#F9F9F9"/>
<rect x="804" y="156" width="220" height="40" rx="6" transform="rotate(90 804 156)" fill="#F9F9F9"/>
<rect x="954" y="214" width="162" height="40" rx="6" transform="rotate(90 954 214)" fill="#D4D4D4"/>
<rect x="904" y="303" width="73" height="40" rx="6" transform="rotate(90 904 303)" fill="#D5D5D5"/>
<rect x="854" y="190" width="186" height="40" rx="6" transform="rotate(90 854 190)" fill="#6FBD44"/>
<rect x="804" y="250" width="126" height="40" rx="6" transform="rotate(90 804 250)" fill="#D5D5D5"/>
<rect x="754" y="342" width="34" height="40" rx="6" transform="rotate(90 754 342)" fill="#D5D5D5"/>
<rect x="704" y="310" width="66" height="40" rx="6" transform="rotate(90 704 310)" fill="#D5D5D5"/>
<rect x="654" y="214" width="162" height="40" rx="6" transform="rotate(90 654 214)" fill="#D5D5D5"/>
<rect x="619.857" y="569.821" width="329.357" height="15.5357" rx="7.76786" fill="#F9F9F9"/>
<rect x="619.857" y="523.214" width="329.357" height="15.5357" rx="7.76786" fill="#F9F9F9"/>
<rect x="619.857" y="476.607" width="329.357" height="15.5357" rx="7.76786" fill="#F9F9F9"/>
<rect x="619.857" y="430" width="329.357" height="15.5357" rx="7.76786" fill="#F9F9F9"/>
<path d="M619.857 579.143L728.607 489.036L837.357 510.786L946.107 482.821" stroke="#AFAFAF" stroke-width="10"/>
<circle cx="728.25" cy="491.679" r="18.5" fill="white" stroke="#D4D4D4" stroke-width="8"/>
<circle cx="836" cy="508.429" r="18.5" fill="white" stroke="#D4D4D4" stroke-width="8"/>
<circle cx="625.5" cy="575.786" r="18.5" fill="white" stroke="#D4D4D4" stroke-width="8"/>
<circle cx="943.75" cy="484.464" r="18.5" fill="white" stroke="#F4B945" stroke-width="8"/>
<path d="M935.941 105.773L950.061 123.175C951.387 124.809 950.224 127.25 948.12 127.25H919.88C917.776 127.25 916.613 124.809 917.939 123.175L932.059 105.773C933.059 104.54 934.941 104.54 935.941 105.773Z" fill="#6FBD44" stroke="white" stroke-width="3"/>
<rect x="230" y="199" width="189" height="9" rx="4.5" fill="#D5D5D5"/>
<rect x="230" y="222" width="189" height="9" rx="4.5" fill="#D5D5D5"/>
</g>
<defs>
<filter id="filter0_d" x="37.2002" y="103" width="548.6" height="185" filterUnits="userSpaceOnUse" color-interpolation-filters="sRGB">
<feFlood flood-opacity="0" result="BackgroundImageFix"/>
<feColorMatrix in="SourceAlpha" type="matrix" values="0 0 0 0 0 0 0 0 0 0 0 0 0 0 0 0 0 0 127 0"/>
<feOffset dx="2" dy="2"/>
<feGaussianBlur stdDeviation="9"/>
<feColorMatrix type="matrix" values="0 0 0 0 0 0 0 0 0 0 0 0 0 0 0 0 0 0 0.25 0"/>
<feBlend mode="normal" in2="BackgroundImageFix" result="effect1_dropShadow"/>
<feBlend mode="normal" in="SourceGraphic" in2="effect1_dropShadow" result="shape"/>
</filter>
<linearGradient id="paint0_linear" x1="53.2002" y1="119" x2="202.2" y2="268" gradientUnits="userSpaceOnUse">
<stop stop-color="#812A80"/>
<stop offset="1" stop-color="#9F1F64"/>
</linearGradient>
<linearGradient id="paint1_linear" x1="128.484" y1="119" x2="132.205" y2="175.217" gradientUnits="userSpaceOnUse">
<stop stop-color="#812A80"/>
<stop offset="1" stop-color="#9F1F64"/>
</linearGradient>
<linearGradient id="paint2_linear" x1="529.09" y1="102.301" x2="554.09" y2="172.801" gradientUnits="userSpaceOnUse">
<stop stop-color="#812A80"/>
<stop offset="1" stop-color="#9F1F64"/>
</linearGradient>
<clipPath id="clip0">
<rect width="1025" height="804" fill="white"/>
</clipPath>
</defs>
</svg>
