<?xml version="1.0" encoding="UTF-8"?>
<svg id="b" data-name="Layer 2" xmlns="http://www.w3.org/2000/svg" viewBox="0 0 115 115">
  <defs>
    <style>
      .d {
        fill: #eeeef0;
      }
    </style>
  </defs>
  <g id="c" data-name="Layer 1">
    <g>
      <path class="d" d="m100.39,20.37c-6.42-5.04-13.88-7.9-21.62-8.84,0,0-.19-.01-.19-.01-.54,0-1,.31-1.18.72-.47,1.51-1.13,3.13-1.9,5.04-.23.56-.46,1.14-.71,1.76l-3.17,8.46c-.07.2-1.69,4.74-1.76,4.94l-.02.23c0,.25.07.43.2.57.13.14.34.26.65.32h0c8.44,2.14,15.95,6.8,19.72,14.64,6.29,13.04,2.28,27.45-12.54,35.92-4.08,2.33-8.82,3.35-13.54,4.01-.28.08-.52.22-.82.54-.05.06-.11.12-.16.18-.01.02-.03.03-.04.05h0c-1.29,1.44-2.57,2.88-3.85,4.31,0,0,0,0,0,0l-.74.83s-.05.05-.07.08c-.76.85-1.52,1.7-2.27,2.55-.42.47-.84.94-1.25,1.41-.42.47-.84.95-1.27,1.42-.42.48-.85.95-1.27,1.43-.43.48-.85.95-1.28,1.43-.43.48-.85.96-1.28,1.43-.43.48-.86.96-1.29,1.44-.2.23-.41.45-.61.68-.1.11-.21.23-.31.34-.05.06-.1.11-.16.17-.04.04-.08.08-.11.14-.04.08-.04.19,0,.27.05.11.14.18.26.18.16,0,.32.02.48.02.32.02.64.03.96.04.64.02,1.28.03,1.92.03.06,0,.12,0,.17,0,9.62,0,19.23-2.14,27.96-6.12,16.28-7.39,29.48-21.72,34.09-38.67,1.07-3.64,1.61-7.46,1.61-11.3v-.1c-.01-11.56-4.87-23.26-14.61-30.54Z"/>
      <path class="d" d="m28.21,90.67h0s0,0,0,0h0s.27-.7.27-.7h0s0,0,0,0c.74-1.93,1.48-3.88,2.22-5.89.03-.11.04-.21.04-.3,0-.2-.06-.35-.17-.48-.06-.07-.14-.14-.23-.2-9.69-4.53-17.77-11.86-20.78-22.1-2.67-9.09.57-18.13,5.09-26.31l1.17-2.06c.09-.15.17-.3.26-.44.01-.02.02-.04.03-.06h0s0,0,0,0h0s0,0,0,0c0,0,0,0,0,0,.04-.04.08-.07.11-.11.36-.35.04-.86-.37-.86-.1,0-.21.03-.32.11C5.55,38.65.01,50.81,0,62.94v.08c0,.43,0,.86.02,1.29.29,15.47,9.85,28.48,23.21,35.89.17.06.33.08.47.08.38,0,.66-.17.87-.55,1.23-2.95,2.44-5.96,3.63-9.05h0Z"/>
      <path class="d" d="m82.75,53.77c-2.66-4.08-7.45-3.04-11.67-3.1-6.36.36-13.89,1.6-9.44-7.42,2.81-7.1,5.11-14.38,7.84-21.51,1.87-5.6,5.98-11.3,4.39-17.39-.82-2.59-3.39-4.67-6.31-4.32-3.38.53-5.19,3.29-7.19,5.64-4.12,4.92-8.55,9.84-12.86,14.56-7.73,8.55-15.47,17.09-23.2,25.64-1.31,1.45-2.63,2.9-3.94,4.35-1.59,1.76-3.56,3.45-3.67,5.92-.11,2.42.85,4.64,2.92,6.12,3.74,2.55,8.59,1.72,12.92,1.76,2.13-.11,4.54-.18,6.47.83,2.67,1.41,1.08,4.5.38,6.56-1.02,3-2.06,5.98-3.13,8.96-2.73,7.67-5.65,15.28-8.82,22.79-1.19,3.17-2.51,8.17.67,10.73,2.34,1.88,5.86,1.14,7.99-.67,14.21-15.47,27.89-31.52,42.38-46.79,3.36-3.17,7.26-8.14,4.27-12.67Z"/>
    </g>
  </g>
</svg>