<svg xmlns="http://www.w3.org/2000/svg" viewBox="0 0 147.03 187.52">
  <g id="Layer_2" data-name="Layer 2">
    <g id="Layer_1-2" data-name="Layer 1">
      <g>
        <path d="M0,41.87V149.7a3.38,3.38,0,0,0,1.41,2.75l48,12.38a3.39,3.39,0,0,0,5.37-2.93l-7.07-40.18a3.4,3.4,0,0,0-2-2.9l-29,8.82a3.39,3.39,0,0,1-1.62-4.55L55.55,27.37a3.39,3.39,0,0,0-3.82-4.78l-49.12,16A3.38,3.38,0,0,0,0,41.87Z" style="fill: #ededed"/>
        <path d="M71.26,4.11,88.14,84.65a3.37,3.37,0,0,0,2,2.43l32.15-6.15a3.39,3.39,0,0,1,1.76,4.67l-53.64,97a3.39,3.39,0,0,0,5.18,4.14l70.16-37.37a3.43,3.43,0,0,0,1.24-2.51V39.14A3.4,3.4,0,0,0,145.18,36L76.12.38A3.39,3.39,0,0,0,71.26,4.11Z" style="fill: #ededed"/>
      </g>
    </g>
  </g>
</svg>
