<svg xmlns="http://www.w3.org/2000/svg"  viewBox="0 0 935.95 187.52">
  <g id="Layer_2" data-name="Layer 2">
    <g id="Layer_1-2" data-name="Layer 1">
      <g>
        <path d="M62.36,44.62A53.24,53.24,0,0,1,77.2,51.44L72.28,62.26a49.84,49.84,0,0,0-13.82-6.39,50.47,50.47,0,0,0-14-2.11q-9.78,0-15.61,3.51t-5.84,9.92a13,13,0,0,0,3.24,9.07,21.81,21.81,0,0,0,8.12,5.58q4.88,2,13.39,4.61a153.5,153.5,0,0,1,16.63,6.19,29.18,29.18,0,0,1,10.76,8.5q4.45,5.64,4.46,14.84a24.2,24.2,0,0,1-4.54,14.62,29.15,29.15,0,0,1-12.83,9.71,49.64,49.64,0,0,1-19.12,3.44,54.81,54.81,0,0,1-21-4.18A55.06,55.06,0,0,1,4.64,128.35L9.77,118A49.63,49.63,0,0,0,25.7,128.5a46.06,46.06,0,0,0,17.61,3.72q11,0,17.3-4.25t6.32-11.43a13.33,13.33,0,0,0-3.3-9.28,22.62,22.62,0,0,0-8.19-5.69A137.55,137.55,0,0,0,42,97a141.85,141.85,0,0,1-16.55-5.84,27.8,27.8,0,0,1-10.76-8.37q-4.39-5.55-4.4-14.62a22.62,22.62,0,0,1,4.33-13.71,27.65,27.65,0,0,1,12.27-9.14,48.09,48.09,0,0,1,18.28-3.23A59.76,59.76,0,0,1,62.36,44.62Z" transform="translate(-4.64)" style="fill: #fff"/>
        <path d="M174.37,132.75q-11.25,11.15-31,11.14t-31.18-11.14q-11.3-11.15-11.29-30.9V42.51h11.53v59.34q0,14.55,8.3,22.74t22.64,8.19q14.41,0,22.57-8.12t8.15-22.81V42.51h11.54v59.34Q185.62,121.6,174.37,132.75Z" transform="translate(-4.64)" style="fill: #fff"/>
        <path d="M258.81,111.2q-4.29.28-6.75.28H225.27v31.85H213.74V42.51h38.32q18.84,0,29.28,8.86t10.44,25q0,12.38-5.83,20.7t-16.74,12l23.56,34.24H279.69Zm14.44-16.8q7.42-6.06,7.42-17.72,0-11.4-7.42-17.23t-21.19-5.83H225.27v46.82h26.79Q265.83,100.44,273.25,94.4Z" transform="translate(-4.64)" style="fill: #fff"/>
        <path d="M398.3,94.11v36.56a62.19,62.19,0,0,1-17.58,9.64,58.15,58.15,0,0,1-19.9,3.58,52.41,52.41,0,0,1-26.4-6.82,51.83,51.83,0,0,1-19.05-18.49,48.61,48.61,0,0,1-7.07-25.66,48.08,48.08,0,0,1,7.07-25.56A51.37,51.37,0,0,1,334.67,49a54.34,54.34,0,0,1,26.79-6.78,56.17,56.17,0,0,1,20.07,3.69,54.66,54.66,0,0,1,17.05,10.16L392,64.72a46.41,46.41,0,0,0-14.2-8.57,45,45,0,0,0-16.31-3.1,42,42,0,0,0-20.88,5.31,40.2,40.2,0,0,0-15.05,14.49,39,39,0,0,0,.07,40.25,40.92,40.92,0,0,0,15.12,14.55A41.82,41.82,0,0,0,361.6,133a44,44,0,0,0,13.67-2.25,50.42,50.42,0,0,0,12.83-6.26V94.11Z" transform="translate(-4.64)" style="fill: #fff"/>
        <path d="M437.74,53.62V86.73h50.84V97.84H437.74v34.52h58.78v11H426.21V42.51h68.41V53.62Z" transform="translate(-4.64)" style="fill: #fff"/>
      </g>
      <g>
        <path d="M753,111.2q-4.29.28-6.75.28H719.47v31.85H707.93V42.51h38.32q18.84,0,29.29,8.86T786,76.4q0,12.38-5.84,20.7t-16.73,12L787,143.33H773.88Zm14.45-16.8q7.42-6.06,7.42-17.72,0-11.4-7.42-17.23t-21.2-5.83H719.47v46.82h26.78Q760,100.44,767.45,94.4Z" transform="translate(-4.64)" style="fill: #fff"/>
        <path d="M881.81,49A51.58,51.58,0,0,1,901,67.4,48.11,48.11,0,0,1,908,92.92,48.6,48.6,0,0,1,901,118.58a51.61,51.61,0,0,1-19.16,18.49,55.07,55.07,0,0,1-53.09,0,51.58,51.58,0,0,1-19.15-18.49,50,50,0,0,1,0-51.29,50.92,50.92,0,0,1,19.15-18.35,54,54,0,0,1,26.65-6.71A53.16,53.16,0,0,1,881.81,49Zm-47,9.53A41.34,41.34,0,0,0,819.8,73a37.07,37.07,0,0,0-5.63,20A37.57,37.57,0,0,0,819.8,113a41.49,41.49,0,0,0,70.87,0,38,38,0,0,0,5.55-20.11,37.45,37.45,0,0,0-5.55-20,41.13,41.13,0,0,0-14.91-14.38,40.41,40.41,0,0,0-20.39-5.35A40.92,40.92,0,0,0,834.84,58.54Z" transform="translate(-4.64)" style="fill: #fff"/>
        <path d="M929.06,143.33V42.51h11.53V143.33Z" transform="translate(-4.64)" style="fill: #fff"/>
      </g>
      <g>
        <path d="M528.1,41.87V149.7a3.4,3.4,0,0,0,1.4,2.75l48,12.38a3.39,3.39,0,0,0,5.37-2.93l-7.07-40.18a3.4,3.4,0,0,0-2-2.9l-29,8.82a3.39,3.39,0,0,1-1.63-4.55l40.49-95.72a3.39,3.39,0,0,0-3.82-4.78l-49.12,16A3.38,3.38,0,0,0,528.1,41.87Z" transform="translate(-4.64)" style="fill: #fff"/>
        <path d="M599.36,4.11l16.88,80.54a3.37,3.37,0,0,0,2,2.43l32.15-6.15a3.39,3.39,0,0,1,1.76,4.67l-53.64,97a3.39,3.39,0,0,0,5.18,4.14l70.16-37.37a3.39,3.39,0,0,0,1.23-2.51V39.14A3.38,3.38,0,0,0,673.28,36L604.21.38A3.38,3.38,0,0,0,599.36,4.11Z" transform="translate(-4.64)" style="fill: #fff"/>
      </g>
    </g>
  </g>
</svg>
