<svg width="722" height="336" viewBox="0 0 722 336" fill="none" xmlns="http://www.w3.org/2000/svg">
<rect x="280" y="92" width="86" height="242" rx="10" fill="#383838" stroke="#EDEDED" stroke-width="4"/>
<rect x="170" y="109" width="86" height="225" rx="10" fill="#383838" stroke="#EDEDED" stroke-width="4"/>
<path d="M70 156H136C141.523 156 146 160.477 146 166V324C146 329.523 141.523 334 136 334H70C64.4772 334 60 329.523 60 324V166C60 160.477 64.4772 156 70 156Z" fill="#383838" stroke="#EDEDED" stroke-width="4"/>
<rect x="170" y="89" width="86" height="54" rx="10" fill="#F4B945" stroke="#EDEDED" stroke-width="4"/>
<rect x="60" y="121" width="86" height="54" rx="10" fill="#F4B945" stroke="#EDEDED" stroke-width="4"/>
<rect x="280" y="63" width="86" height="54" rx="10" fill="#F4B945" stroke="#EDEDED" stroke-width="4"/>
<rect x="443.5" y="2.5" width="276" height="175" rx="14.5" stroke="#F4B945" stroke-width="5"/>
<rect x="448.5" y="55.5" width="266" height="117" rx="9.5" fill="#F4B945" stroke="#EDEDED" stroke-width="5"/>
<rect x="448.5" y="7.5" width="266" height="48" rx="9.5" fill="#F0C675" stroke="#EDEDED" stroke-width="5"/>
<path d="M488.384 105.776C488.384 102.224 486.336 99.952 483.008 99.952H475.68V122H483.616C487.232 122 489.376 119.024 489.376 115.536C489.376 113.424 488.032 110.832 485.76 110.32C487.616 109.52 488.384 107.504 488.384 105.776ZM479.008 109.04V103.088H482.24C484.224 103.088 485.056 104.368 485.056 105.872C485.056 107.344 484.352 109.04 482.4 109.04H479.008ZM482.816 111.888C485.152 111.888 486.016 113.936 486.016 115.504C486.016 117.36 485.056 118.864 482.976 118.864H479.008V111.888H482.816ZM494.819 114.48C494.819 111.728 496.419 109.84 498.467 109.84C500.451 109.84 502.083 111.728 502.083 114.48C502.083 117.296 500.451 119.216 498.467 119.216C496.419 119.216 494.819 117.296 494.819 114.48ZM505.315 114.48C505.315 109.776 502.211 106.736 498.467 106.736C494.723 106.736 491.587 109.776 491.587 114.48C491.587 119.216 494.723 122.32 498.467 122.32C502.211 122.32 505.315 119.216 505.315 114.48ZM510.6 114.48C510.6 111.728 512.2 109.84 514.248 109.84C516.232 109.84 517.864 111.728 517.864 114.48C517.864 117.296 516.232 119.216 514.248 119.216C512.2 119.216 510.6 117.296 510.6 114.48ZM521.096 114.48C521.096 109.776 517.992 106.736 514.248 106.736C510.504 106.736 507.368 109.776 507.368 114.48C507.368 119.216 510.504 122.32 514.248 122.32C517.992 122.32 521.096 119.216 521.096 114.48ZM523.085 117.616C523.117 120.624 525.517 122.32 528.077 122.32C531.021 122.32 533.293 120.496 533.293 117.808C533.293 115.952 532.237 114.096 529.677 113.264L527.853 112.688C526.733 112.304 526.413 111.248 526.733 110.448C526.957 109.904 527.501 109.584 528.173 109.584C529.005 109.584 529.613 110.032 529.773 111.248H532.877C532.877 108.176 530.637 106.736 528.205 106.736C525.005 106.736 523.437 109.008 523.437 111.088C523.437 113.552 524.621 114.704 526.029 115.216L528.877 116.24C529.741 116.528 530.061 117.136 530.093 117.648C530.157 118.736 529.293 119.44 528.109 119.44C526.925 119.44 526.349 118.64 526.253 117.52V117.488H523.085V117.616ZM536.97 115.632C536.97 119.408 538.218 122 541.866 122H543.146V119.088H542.282C540.49 119.088 540.202 117.296 540.202 115.696V109.648H542.794V107.056H540.202V102.032L536.97 102.768V107.056H534.794V109.648H536.97V115.632ZM548.385 113.456C548.705 110.96 550.177 109.808 551.937 109.808C553.665 109.808 555.137 110.928 555.425 113.456H548.385ZM558.689 115.696C558.721 115.376 558.721 114.832 558.721 114.48C558.721 109.744 555.841 106.736 551.937 106.736C548.033 106.736 544.993 109.744 544.993 114.48C544.993 119.216 548.033 122.32 551.937 122.32C554.625 122.32 557.089 121.008 558.241 118.448L555.457 117.136C554.721 118.608 553.377 119.28 552.033 119.28C550.049 119.28 548.673 117.744 548.385 115.696H558.689ZM571.21 114.48C571.21 117.424 569.45 119.12 567.498 119.12C565.514 119.12 563.882 117.2 563.882 114.48C563.882 111.728 565.514 109.936 567.498 109.936C569.29 109.936 571.21 111.536 571.21 114.48ZM574.442 122V98.928H571.21V109.456C570.346 107.632 568.49 106.736 566.794 106.736C563.21 106.736 560.65 109.776 560.65 114.512C560.65 119.248 563.274 122.32 566.826 122.32C568.522 122.32 570.602 121.488 571.21 119.6V122H574.442ZM592.533 103.088C594.965 103.088 595.701 105.104 595.701 106.96C595.701 109.424 594.773 110.8 591.381 110.8H588.757V103.088H592.533ZM585.461 122H588.757V113.936H590.869L595.541 122H599.285L594.357 113.712C597.717 113.136 598.997 110.096 598.997 106.96C598.997 103.472 597.333 99.952 593.013 99.952H585.461V122ZM604.26 113.456C604.58 110.96 606.052 109.808 607.812 109.808C609.54 109.808 611.012 110.928 611.3 113.456H604.26ZM614.564 115.696C614.596 115.376 614.596 114.832 614.596 114.48C614.596 109.744 611.716 106.736 607.812 106.736C603.908 106.736 600.868 109.744 600.868 114.48C600.868 119.216 603.908 122.32 607.812 122.32C610.5 122.32 612.964 121.008 614.116 118.448L611.332 117.136C610.596 118.608 609.252 119.28 607.908 119.28C605.924 119.28 604.548 117.744 604.26 115.696H614.564ZM625.489 107.056L622.257 117.872L618.961 107.056H615.473L620.721 122H623.793L629.041 107.056H625.489ZM633.385 113.456C633.705 110.96 635.177 109.808 636.937 109.808C638.665 109.808 640.137 110.928 640.425 113.456H633.385ZM643.689 115.696C643.721 115.376 643.721 114.832 643.721 114.48C643.721 109.744 640.841 106.736 636.937 106.736C633.033 106.736 629.993 109.744 629.993 114.48C629.993 119.216 633.033 122.32 636.937 122.32C639.625 122.32 642.089 121.008 643.241 118.448L640.457 117.136C639.721 118.608 638.377 119.28 637.033 119.28C635.049 119.28 633.673 117.744 633.385 115.696H643.689ZM652.562 109.968C654.386 109.968 655.378 111.216 655.378 114.192V122H658.61V113.2C658.61 109.2 656.882 106.736 653.586 106.736C652.178 106.736 650.386 107.44 649.682 109.36V107.056H646.45V122H649.682V113.872C649.682 111.12 650.994 109.968 652.562 109.968ZM667.865 119.216C665.945 119.216 665.241 117.84 665.241 114.864V107.056H662.009V115.856C662.009 119.792 663.673 122.32 667.001 122.32C668.473 122.32 670.201 121.616 670.937 119.888V122H674.169V107.056H670.937V115.184C670.937 117.936 669.657 119.216 667.865 119.216ZM680.447 113.456C680.767 110.96 682.239 109.808 683.999 109.808C685.727 109.808 687.199 110.928 687.487 113.456H680.447ZM690.751 115.696C690.783 115.376 690.783 114.832 690.783 114.48C690.783 109.744 687.903 106.736 683.999 106.736C680.095 106.736 677.055 109.744 677.055 114.48C677.055 119.216 680.095 122.32 683.999 122.32C686.687 122.32 689.151 121.008 690.303 118.448L687.519 117.136C686.783 118.608 685.439 119.28 684.095 119.28C682.111 119.28 680.735 117.744 680.447 115.696H690.751Z" fill="#EDEDED"/>
<path d="M15.456 290.532L24 285.508L24 283.044L15.424 288.228C14.752 284.452 12.288 282.884 8.736 282.884C5.344 282.884 1.952 284.484 1.952 288.612L1.952 295.908L24 295.908L24 293.796L15.456 293.796L15.456 290.532ZM13.376 293.796L4 293.796L4 288.772C4 286.02 6.432 284.996 8.736 284.996C11.072 284.996 13.376 286.02 13.376 288.836L13.376 293.796ZM1.952 278.908L24 278.908L24 267.612L21.952 267.612L21.952 276.796L14.08 276.796L14.08 269.02L12.064 269.02L12.064 276.796L4 276.796L4 267.9L1.952 267.9L1.952 278.908ZM1.952 263.305L1.952 265.545L24 259.593L24 257.673L1.952 251.721L1.952 253.961L20.032 258.633L1.952 263.305ZM1.952 248.408L24 248.408L24 237.112L21.952 237.112L21.952 246.296L14.08 246.296L14.08 238.52L12.064 238.52L12.064 246.296L4 246.296L4 237.4L1.952 237.4L1.952 248.408ZM1.952 231.141L1.952 233.189L24 233.189L24 231.077L6.368 231.077L24 221.765L24 219.749L1.952 219.749L1.952 221.861L19.648 221.861L1.952 231.141ZM24.32 207.908C24.32 204.228 21.824 201.06 17.088 201.06L1.91999 201.06L1.91999 203.172L17.088 203.172C20.544 203.172 22.176 205.412 22.176 207.908C22.176 210.404 20.544 212.644 17.088 212.644L1.91999 212.644L1.91999 214.756L17.088 214.756C21.824 214.756 24.32 211.588 24.32 207.908ZM1.95199 196.064L24 196.064L24 184.768L21.952 184.768L21.952 193.952L14.08 193.952L14.08 186.176L12.064 186.176L12.064 193.952L4 193.952L3.99999 185.056L1.95199 185.056L1.95199 196.064Z" fill="#383838"/>
<path d="M516.017 34.524C519.629 34.524 521.085 31.612 521.085 28.644C521.085 25.676 519.629 22.708 516.017 22.708H509.633V42H511.481V34.524H516.017ZM511.481 32.704V24.5H515.877C518.285 24.5 519.237 26.628 519.237 28.644C519.237 30.688 518.285 32.704 515.821 32.704H511.481ZM528.411 42V40.264H527.627C525.863 40.264 525.275 38.612 525.275 36.4V21.812H523.483V36.4C523.483 39.648 524.519 42 527.627 42H528.411ZM537.89 42H539.682V34.076C539.682 30.492 537.638 28.644 534.446 28.644C533.074 28.644 531.002 29.148 529.798 30.856L531.03 31.948C531.87 30.856 533.354 30.38 534.362 30.38C536.518 30.38 537.89 31.696 537.89 34.048V35.224C536.434 34.384 535.034 34.188 533.998 34.188C530.47 34.188 528.986 36.148 528.986 38.304C528.986 40.768 530.834 42.28 533.41 42.28C535.146 42.28 536.854 41.72 537.89 40.488V42ZM537.89 38.724C536.602 40.46 534.642 40.544 533.438 40.544C531.814 40.544 530.806 39.648 530.806 38.36C530.806 37.016 531.758 35.924 533.998 35.924C534.95 35.924 536.546 36.036 537.89 36.792V38.724ZM545.697 30.548H548.497V28.924H545.697V24.612L543.905 25.368V28.924H541.777V30.548H543.905V37.128C543.905 40.376 544.857 42 547.965 42H548.693V40.292L547.965 40.236C546.229 40.236 545.697 39.172 545.697 37.128V30.548ZM552.195 42H553.987V30.548H556.955V28.924H553.987V27.608C553.987 25.396 554.519 23.548 556.787 23.548H557.683V21.812H556.591C553.455 21.812 552.195 24.164 552.195 27.608V28.924H549.843V30.548H552.195V42ZM564.104 42.28C567.352 42.28 570.068 39.564 570.068 35.42C570.068 31.276 567.352 28.644 564.104 28.644C560.856 28.644 558.14 31.276 558.14 35.42C558.14 39.564 560.856 42.28 564.104 42.28ZM564.104 40.516C561.836 40.516 559.932 38.472 559.932 35.42C559.932 32.396 561.836 30.408 564.104 30.408C566.372 30.408 568.276 32.396 568.276 35.42C568.276 38.472 566.372 40.516 564.104 40.516ZM578.076 30.548C578.412 30.548 579 30.632 579.616 30.884L579.868 29.036C579.504 28.84 578.804 28.644 578.104 28.644C577.124 28.644 575.388 29.204 574.716 31.64V28.924H572.924V42H574.716V36.764C574.716 33.32 575.528 30.548 578.076 30.548ZM595.358 30.464C597.318 30.464 598.326 31.864 598.326 34.384V42H600.118V34.384C600.118 30.744 598.634 28.644 595.61 28.644C594.07 28.644 592.11 29.316 591.41 31.668C590.794 29.624 589.394 28.644 587.35 28.644C585.782 28.644 584.326 29.428 583.766 31.108V28.924H581.974V42H583.766V34.692C583.822 32.368 584.774 30.464 587.098 30.464C589.058 30.464 590.122 31.892 590.178 34.356V42H591.97V34.692C592.026 32.34 593.006 30.464 595.358 30.464ZM621.99 37.8C620.786 39.48 619.162 40.46 617.174 40.46C613.534 40.46 611.042 37.464 611.042 32.396C611.042 27.356 613.534 24.304 617.174 24.304C619.162 24.304 620.786 25.312 621.99 26.992L623.39 25.816C621.934 23.772 619.806 22.484 617.174 22.484C612.47 22.484 609.194 26.236 609.194 32.396C609.194 38.556 612.47 42.28 617.174 42.28C619.806 42.28 621.934 40.992 623.39 38.948L621.99 37.8ZM631.041 42.28C634.289 42.28 637.005 39.564 637.005 35.42C637.005 31.276 634.289 28.644 631.041 28.644C627.793 28.644 625.077 31.276 625.077 35.42C625.077 39.564 627.793 42.28 631.041 42.28ZM631.041 40.516C628.773 40.516 626.869 38.472 626.869 35.42C626.869 32.396 628.773 30.408 631.041 30.408C633.309 30.408 635.213 32.396 635.213 35.42C635.213 38.472 633.309 40.516 631.041 40.516ZM647.141 32.228C646.917 29.54 644.957 28.644 643.165 28.644C640.869 28.644 639.329 30.24 639.329 32.368C639.329 34.468 640.645 35.476 642.297 35.952L644.201 36.512C645.489 36.904 645.825 37.856 645.825 38.528C645.797 39.816 644.845 40.516 643.221 40.516C641.905 40.516 640.841 39.76 640.813 38.444H639.021C639.049 40.88 641.065 42.28 643.221 42.28C645.741 42.28 647.533 40.936 647.617 38.584C647.617 37.212 646.973 35.448 644.649 34.776L642.773 34.244C641.877 33.964 641.121 33.376 641.121 32.34C641.121 31.22 641.877 30.408 643.165 30.408C644.117 30.408 645.153 30.716 645.377 32.228H647.141ZM653.049 30.548H655.849V28.924L653.049 28.924V24.612L651.257 25.368V28.924H649.129V30.548H651.257V37.128C651.257 40.376 652.209 42 655.317 42H656.045V40.292L655.317 40.236C653.581 40.236 653.049 39.172 653.049 37.128V30.548Z" fill="#EDEDED"/>
<line x1="385.5" y1="87.5" x2="422.5" y2="87.5" stroke="#F4B945" stroke-width="5" stroke-linecap="round"/>
</svg>
