<svg width="785" height="482" viewBox="0 0 785 482" fill="none" xmlns="http://www.w3.org/2000/svg">
<rect x="332" y="119" width="90" height="363" rx="12" fill="#383838"/>
<rect x="202" y="145" width="90" height="337" rx="12" fill="#383838"/>
<path d="M72 189C72 182.373 77.3726 177 84 177H150C156.627 177 162 182.373 162 189V470C162 476.627 156.627 482 150 482H84C77.3726 482 72 476.627 72 470V189Z" fill="#383838"/>
<rect x="202" y="87" width="90" height="58" rx="12" fill="#F4B945"/>
<rect x="72" y="119" width="90" height="58" rx="12" fill="#F4B945"/>
<rect x="332" y="61" width="90" height="58" rx="12" fill="#F4B945"/>
<rect x="506.5" y="2.5" width="276" height="175" rx="14.5" stroke="#F4B945" stroke-width="5"/>
<rect x="511.5" y="55.5" width="266" height="117" rx="9.5" fill="#F4B945" stroke="#EDEDED" stroke-width="5"/>
<rect x="511.5" y="7.5" width="266" height="48" rx="9.5" fill="#F0C675" stroke="#EDEDED" stroke-width="5"/>
<path d="M551.384 105.776C551.384 102.224 549.336 99.952 546.008 99.952H538.68V122H546.616C550.232 122 552.376 119.024 552.376 115.536C552.376 113.424 551.032 110.832 548.76 110.32C550.616 109.52 551.384 107.504 551.384 105.776ZM542.008 109.04V103.088H545.24C547.224 103.088 548.056 104.368 548.056 105.872C548.056 107.344 547.352 109.04 545.4 109.04H542.008ZM545.816 111.888C548.152 111.888 549.016 113.936 549.016 115.504C549.016 117.36 548.056 118.864 545.976 118.864H542.008V111.888H545.816ZM557.819 114.48C557.819 111.728 559.419 109.84 561.467 109.84C563.451 109.84 565.083 111.728 565.083 114.48C565.083 117.296 563.451 119.216 561.467 119.216C559.419 119.216 557.819 117.296 557.819 114.48ZM568.315 114.48C568.315 109.776 565.211 106.736 561.467 106.736C557.723 106.736 554.587 109.776 554.587 114.48C554.587 119.216 557.723 122.32 561.467 122.32C565.211 122.32 568.315 119.216 568.315 114.48ZM573.6 114.48C573.6 111.728 575.2 109.84 577.248 109.84C579.232 109.84 580.864 111.728 580.864 114.48C580.864 117.296 579.232 119.216 577.248 119.216C575.2 119.216 573.6 117.296 573.6 114.48ZM584.096 114.48C584.096 109.776 580.992 106.736 577.248 106.736C573.504 106.736 570.368 109.776 570.368 114.48C570.368 119.216 573.504 122.32 577.248 122.32C580.992 122.32 584.096 119.216 584.096 114.48ZM586.085 117.616C586.117 120.624 588.517 122.32 591.077 122.32C594.021 122.32 596.293 120.496 596.293 117.808C596.293 115.952 595.237 114.096 592.677 113.264L590.853 112.688C589.733 112.304 589.413 111.248 589.733 110.448C589.957 109.904 590.501 109.584 591.173 109.584C592.005 109.584 592.613 110.032 592.773 111.248H595.877C595.877 108.176 593.637 106.736 591.205 106.736C588.005 106.736 586.437 109.008 586.437 111.088C586.437 113.552 587.621 114.704 589.029 115.216L591.877 116.24C592.741 116.528 593.061 117.136 593.093 117.648C593.157 118.736 592.293 119.44 591.109 119.44C589.925 119.44 589.349 118.64 589.253 117.52V117.488H586.085V117.616ZM599.97 115.632C599.97 119.408 601.218 122 604.866 122H606.146V119.088H605.282C603.49 119.088 603.202 117.296 603.202 115.696V109.648H605.794V107.056H603.202V102.032L599.97 102.768V107.056H597.794V109.648H599.97V115.632ZM611.385 113.456C611.705 110.96 613.177 109.808 614.937 109.808C616.665 109.808 618.137 110.928 618.425 113.456H611.385ZM621.689 115.696C621.721 115.376 621.721 114.832 621.721 114.48C621.721 109.744 618.841 106.736 614.937 106.736C611.033 106.736 607.993 109.744 607.993 114.48C607.993 119.216 611.033 122.32 614.937 122.32C617.625 122.32 620.089 121.008 621.241 118.448L618.457 117.136C617.721 118.608 616.377 119.28 615.033 119.28C613.049 119.28 611.673 117.744 611.385 115.696H621.689ZM634.21 114.48C634.21 117.424 632.45 119.12 630.498 119.12C628.514 119.12 626.882 117.2 626.882 114.48C626.882 111.728 628.514 109.936 630.498 109.936C632.29 109.936 634.21 111.536 634.21 114.48ZM637.442 122V98.928H634.21V109.456C633.346 107.632 631.49 106.736 629.794 106.736C626.21 106.736 623.65 109.776 623.65 114.512C623.65 119.248 626.274 122.32 629.826 122.32C631.522 122.32 633.602 121.488 634.21 119.6V122H637.442ZM655.533 103.088C657.965 103.088 658.701 105.104 658.701 106.96C658.701 109.424 657.773 110.8 654.381 110.8H651.757V103.088H655.533ZM648.461 122H651.757V113.936H653.869L658.541 122H662.285L657.357 113.712C660.717 113.136 661.997 110.096 661.997 106.96C661.997 103.472 660.333 99.952 656.013 99.952H648.461V122ZM667.26 113.456C667.58 110.96 669.052 109.808 670.812 109.808C672.54 109.808 674.012 110.928 674.3 113.456H667.26ZM677.564 115.696C677.596 115.376 677.596 114.832 677.596 114.48C677.596 109.744 674.716 106.736 670.812 106.736C666.908 106.736 663.868 109.744 663.868 114.48C663.868 119.216 666.908 122.32 670.812 122.32C673.5 122.32 675.964 121.008 677.116 118.448L674.332 117.136C673.596 118.608 672.252 119.28 670.908 119.28C668.924 119.28 667.548 117.744 667.26 115.696H677.564ZM688.489 107.056L685.257 117.872L681.961 107.056H678.473L683.721 122H686.793L692.041 107.056H688.489ZM696.385 113.456C696.705 110.96 698.177 109.808 699.937 109.808C701.665 109.808 703.137 110.928 703.425 113.456H696.385ZM706.689 115.696C706.721 115.376 706.721 114.832 706.721 114.48C706.721 109.744 703.841 106.736 699.937 106.736C696.033 106.736 692.993 109.744 692.993 114.48C692.993 119.216 696.033 122.32 699.937 122.32C702.625 122.32 705.089 121.008 706.241 118.448L703.457 117.136C702.721 118.608 701.377 119.28 700.033 119.28C698.049 119.28 696.673 117.744 696.385 115.696H706.689ZM715.562 109.968C717.386 109.968 718.378 111.216 718.378 114.192V122H721.61V113.2C721.61 109.2 719.882 106.736 716.586 106.736C715.178 106.736 713.386 107.44 712.682 109.36V107.056H709.45V122H712.682V113.872C712.682 111.12 713.994 109.968 715.562 109.968ZM730.865 119.216C728.945 119.216 728.241 117.84 728.241 114.864V107.056H725.009V115.856C725.009 119.792 726.673 122.32 730.001 122.32C731.473 122.32 733.201 121.616 733.937 119.888V122H737.169V107.056H733.937V115.184C733.937 117.936 732.657 119.216 730.865 119.216ZM743.447 113.456C743.767 110.96 745.239 109.808 746.999 109.808C748.727 109.808 750.199 110.928 750.487 113.456H743.447ZM753.751 115.696C753.783 115.376 753.783 114.832 753.783 114.48C753.783 109.744 750.903 106.736 746.999 106.736C743.095 106.736 740.055 109.744 740.055 114.48C740.055 119.216 743.095 122.32 746.999 122.32C749.687 122.32 752.151 121.008 753.303 118.448L750.519 117.136C749.783 118.608 748.439 119.28 747.095 119.28C745.111 119.28 743.735 117.744 743.447 115.696H753.751Z" fill="#EDEDED"/>
<path d="M21.536 424.209L5.792 417.617L24 415.825L24 413.713L1.952 415.889L1.952 418.161L18.656 425.041L1.952 431.921L1.952 434.193L24 436.369L24 434.257L5.792 432.465L21.536 425.873L21.536 424.209ZM24.32 404.344C24.32 400.632 21.216 397.528 16.48 397.528C11.744 397.528 8.736 400.632 8.736 404.344C8.736 408.056 11.744 411.16 16.48 411.16C21.216 411.16 24.32 408.056 24.32 404.344ZM22.304 404.344C22.304 406.936 19.968 409.112 16.48 409.112C13.024 409.112 10.752 406.936 10.752 404.344C10.752 401.752 13.024 399.576 16.48 399.576C19.968 399.576 22.304 401.752 22.304 404.344ZM15.52 382.424C10.944 382.424 8.736 384.536 8.736 387.832C8.736 389.752 9.664 391.448 11.552 392.216L9.056 392.216L9.056 394.264L24 394.264L24 392.216L15.744 392.216C12.896 392.152 10.816 390.904 10.816 388.248C10.816 385.944 12.288 384.472 15.872 384.472L24 384.472L24 382.424L15.52 382.424ZM10.912 375.535L10.912 372.335L9.056 372.335L9.056 375.535L4.128 375.535L4.992 377.583L9.056 377.583L9.056 380.015L10.912 380.015L10.912 377.583L18.432 377.583C22.144 377.583 24 376.495 24 372.943L24 372.111L22.048 372.111L21.984 372.943C21.984 374.927 20.768 375.535 18.432 375.535L10.912 375.535ZM0.927996 367.309L0.927996 369.357L24 369.357L24 367.309L16 367.309C12.992 367.309 10.784 366.061 10.784 363.213C10.784 361.069 12.288 359.469 15.392 359.469L24 359.469L24 357.421L15.264 357.421C10.88 357.421 8.736 359.693 8.736 362.957C8.736 364.749 9.472 366.349 11.552 367.309L0.927996 367.309ZM24 347.948L22.016 347.948L22.016 348.844C22.016 350.86 20.128 351.532 17.6 351.532L0.927996 351.532L0.927996 353.58L17.6 353.58C21.312 353.58 24 352.396 24 348.844L24 347.948ZM25.792 343.349C28 344.181 29.536 344.917 29.536 346.709C29.536 346.901 29.536 347.509 29.344 347.957L31.296 347.957C31.456 347.285 31.456 346.837 31.456 346.709C31.456 343.957 30.048 342.773 26.656 341.493L9.056 335.221L9.056 337.461L21.088 341.589L9.056 345.685L9.056 347.925L23.904 342.741L25.792 343.349ZM15.456 320.438L24 315.414L24 312.95L15.424 318.134C14.752 314.358 12.288 312.79 8.73599 312.79C5.34399 312.79 1.95199 314.39 1.95199 318.518L1.95199 325.814L24 325.814L24 323.702L15.456 323.702L15.456 320.438ZM13.376 323.702L4 323.702L3.99999 318.678C3.99999 315.926 6.43199 314.902 8.73599 314.902C11.072 314.902 13.376 315.926 13.376 318.742L13.376 323.702ZM19.616 299.777C21.408 300.577 22.272 302.209 22.272 303.969C22.272 306.337 20.512 308.225 17.632 308.609L17.632 297.441C17.312 297.409 16.832 297.409 16.48 297.409C11.744 297.409 8.73599 300.225 8.73599 304.001C8.73599 307.777 11.744 310.785 16.48 310.785C21.216 310.785 24.32 307.777 24.32 304.001C24.32 301.409 22.976 298.977 20.384 297.889L19.616 299.777ZM10.784 304.001C10.784 301.569 12.704 299.649 16 299.489L16 308.641C12.64 308.385 10.784 306.465 10.784 304.001ZM9.05599 293.905L9.05599 296.145L24 290.641L24 288.593L9.05599 283.089L9.05599 285.329L21.312 289.617L9.05599 293.905ZM19.616 270.745C21.408 271.545 22.272 273.177 22.272 274.937C22.272 277.305 20.512 279.193 17.632 279.577L17.632 268.409C17.312 268.377 16.832 268.377 16.48 268.377C11.744 268.377 8.73599 271.193 8.73599 274.969C8.73599 278.745 11.744 281.753 16.48 281.753C21.216 281.753 24.32 278.745 24.32 274.969C24.32 272.377 22.976 269.945 20.384 268.857L19.616 270.745ZM10.784 274.969C10.784 272.537 12.704 270.617 16 270.457L16 279.609C12.64 279.353 10.784 277.433 10.784 274.969ZM15.52 253.392C10.944 253.392 8.73599 255.504 8.73599 258.8C8.73599 260.72 9.66399 262.416 11.552 263.184L9.05599 263.184L9.05599 265.232L24 265.232L24 263.184L15.744 263.184C12.896 263.12 10.816 261.872 10.816 259.216C10.816 256.912 12.288 255.44 15.872 255.44L24 255.44L24 253.392L15.52 253.392ZM24 239.821L24 237.773L9.05599 237.773L9.05599 239.821L17.344 239.821C20.192 239.885 22.304 241.101 22.304 243.917C22.304 246.189 20.832 247.501 17.6 247.501L9.05599 247.501L9.05599 249.549L17.952 249.549C22.112 249.549 24.32 247.469 24.32 244.205C24.32 242.253 23.424 240.589 21.664 239.821L24 239.821ZM19.616 223.495C21.408 224.295 22.272 225.927 22.272 227.687C22.272 230.055 20.512 231.943 17.632 232.327L17.632 221.159C17.312 221.127 16.832 221.127 16.48 221.127C11.744 221.127 8.73599 223.943 8.73599 227.719C8.73599 231.495 11.744 234.503 16.48 234.503C21.216 234.503 24.32 231.495 24.32 227.719C24.32 225.127 22.976 222.695 20.384 221.607L19.616 223.495ZM10.784 227.719C10.784 225.287 12.704 223.367 16 223.207L16 232.359C12.64 232.103 10.784 230.183 10.784 227.719Z" fill="#383838"/>
<path d="M579.017 34.524C582.629 34.524 584.085 31.612 584.085 28.644C584.085 25.676 582.629 22.708 579.017 22.708H572.633V42H574.481V34.524H579.017ZM574.481 32.704V24.5H578.877C581.285 24.5 582.237 26.628 582.237 28.644C582.237 30.688 581.285 32.704 578.821 32.704H574.481ZM591.411 42V40.264H590.627C588.863 40.264 588.275 38.612 588.275 36.4V21.812H586.483V36.4C586.483 39.648 587.519 42 590.627 42H591.411ZM600.89 42H602.682V34.076C602.682 30.492 600.638 28.644 597.446 28.644C596.074 28.644 594.002 29.148 592.798 30.856L594.03 31.948C594.87 30.856 596.354 30.38 597.362 30.38C599.518 30.38 600.89 31.696 600.89 34.048V35.224C599.434 34.384 598.034 34.188 596.998 34.188C593.47 34.188 591.986 36.148 591.986 38.304C591.986 40.768 593.834 42.28 596.41 42.28C598.146 42.28 599.854 41.72 600.89 40.488V42ZM600.89 38.724C599.602 40.46 597.642 40.544 596.438 40.544C594.814 40.544 593.806 39.648 593.806 38.36C593.806 37.016 594.758 35.924 596.998 35.924C597.95 35.924 599.546 36.036 600.89 36.792V38.724ZM608.697 30.548H611.497V28.924H608.697V24.612L606.905 25.368V28.924H604.777V30.548H606.905V37.128C606.905 40.376 607.857 42 610.965 42H611.693V40.292L610.965 40.236C609.229 40.236 608.697 39.172 608.697 37.128V30.548ZM615.195 42H616.987V30.548H619.955V28.924H616.987V27.608C616.987 25.396 617.519 23.548 619.787 23.548H620.683V21.812H619.591C616.455 21.812 615.195 24.164 615.195 27.608V28.924H612.843V30.548H615.195V42ZM627.104 42.28C630.352 42.28 633.068 39.564 633.068 35.42C633.068 31.276 630.352 28.644 627.104 28.644C623.856 28.644 621.14 31.276 621.14 35.42C621.14 39.564 623.856 42.28 627.104 42.28ZM627.104 40.516C624.836 40.516 622.932 38.472 622.932 35.42C622.932 32.396 624.836 30.408 627.104 30.408C629.372 30.408 631.276 32.396 631.276 35.42C631.276 38.472 629.372 40.516 627.104 40.516ZM641.076 30.548C641.412 30.548 642 30.632 642.616 30.884L642.868 29.036C642.504 28.84 641.804 28.644 641.104 28.644C640.124 28.644 638.388 29.204 637.716 31.64V28.924H635.924V42H637.716V36.764C637.716 33.32 638.528 30.548 641.076 30.548ZM658.358 30.464C660.318 30.464 661.326 31.864 661.326 34.384V42H663.118V34.384C663.118 30.744 661.634 28.644 658.61 28.644C657.07 28.644 655.11 29.316 654.41 31.668C653.794 29.624 652.394 28.644 650.35 28.644C648.782 28.644 647.326 29.428 646.766 31.108V28.924H644.974V42H646.766V34.692C646.822 32.368 647.774 30.464 650.098 30.464C652.058 30.464 653.122 31.892 653.178 34.356V42H654.97V34.692C655.026 32.34 656.006 30.464 658.358 30.464ZM684.99 37.8C683.786 39.48 682.162 40.46 680.174 40.46C676.534 40.46 674.042 37.464 674.042 32.396C674.042 27.356 676.534 24.304 680.174 24.304C682.162 24.304 683.786 25.312 684.99 26.992L686.39 25.816C684.934 23.772 682.806 22.484 680.174 22.484C675.47 22.484 672.194 26.236 672.194 32.396C672.194 38.556 675.47 42.28 680.174 42.28C682.806 42.28 684.934 40.992 686.39 38.948L684.99 37.8ZM694.041 42.28C697.289 42.28 700.005 39.564 700.005 35.42C700.005 31.276 697.289 28.644 694.041 28.644C690.793 28.644 688.077 31.276 688.077 35.42C688.077 39.564 690.793 42.28 694.041 42.28ZM694.041 40.516C691.773 40.516 689.869 38.472 689.869 35.42C689.869 32.396 691.773 30.408 694.041 30.408C696.309 30.408 698.213 32.396 698.213 35.42C698.213 38.472 696.309 40.516 694.041 40.516ZM710.141 32.228C709.917 29.54 707.957 28.644 706.165 28.644C703.869 28.644 702.329 30.24 702.329 32.368C702.329 34.468 703.645 35.476 705.297 35.952L707.201 36.512C708.489 36.904 708.825 37.856 708.825 38.528C708.797 39.816 707.845 40.516 706.221 40.516C704.905 40.516 703.841 39.76 703.813 38.444H702.021C702.049 40.88 704.065 42.28 706.221 42.28C708.741 42.28 710.533 40.936 710.617 38.584C710.617 37.212 709.973 35.448 707.649 34.776L705.773 34.244C704.877 33.964 704.121 33.376 704.121 32.34C704.121 31.22 704.877 30.408 706.165 30.408C707.117 30.408 708.153 30.716 708.377 32.228H710.141ZM716.049 30.548H718.849V28.924L716.049 28.924V24.612L714.257 25.368V28.924H712.129V30.548H714.257V37.128C714.257 40.376 715.209 42 718.317 42H719.045V40.292L718.317 40.236C716.581 40.236 716.049 39.172 716.049 37.128V30.548Z" fill="#EDEDED"/>
<line x1="447.5" y1="87.5" x2="484.5" y2="87.5" stroke="#F4B945" stroke-width="5" stroke-linecap="round"/>
</svg>
