<svg width="573" height="337" viewBox="0 0 573 337" fill="none" xmlns="http://www.w3.org/2000/svg">
<rect x="225" y="95" width="82" height="238" rx="14" fill="#383838" stroke="#EDEDED" stroke-width="8"/>
<rect x="135" y="112" width="82" height="221" rx="14" fill="#383838" stroke="#EDEDED" stroke-width="8"/>
<path d="M59 159H113C120.732 159 127 165.268 127 173V319C127 326.732 120.732 333 113 333H59C51.268 333 45 326.732 45 319V173C45 165.268 51.268 159 59 159Z" fill="#383838" stroke="#EDEDED" stroke-width="8"/>
<rect x="135" y="92" width="82" height="50" rx="14" fill="#97D078" stroke="#EDEDED" stroke-width="8"/>
<rect x="45" y="124" width="82" height="50" rx="14" fill="#97D078" stroke="#EDEDED" stroke-width="8"/>
<rect x="225" y="66" width="82" height="50" rx="14" fill="#6FBD44" stroke="#EDEDED" stroke-width="8"/>
<rect x="354.5" y="2.5" width="216" height="175" rx="14.5" stroke="#6FBD44" stroke-width="5"/>
<rect x="359.5" y="147.5" width="206" height="25" rx="12.5" fill="#C9C9C9" stroke="#EDEDED" stroke-width="5"/>
<path d="M15.456 291.532L24 286.508L24 284.044L15.424 289.228C14.752 285.452 12.288 283.884 8.736 283.884C5.344 283.884 1.952 285.484 1.952 289.612L1.952 296.908L24 296.908L24 294.796L15.456 294.796L15.456 291.532ZM13.376 294.796L4 294.796L4 289.772C4 287.02 6.432 285.996 8.736 285.996C11.072 285.996 13.376 287.02 13.376 289.836L13.376 294.796ZM1.952 279.908L24 279.908L24 268.612L21.952 268.612L21.952 277.796L14.08 277.796L14.08 270.02L12.064 270.02L12.064 277.796L4 277.796L4 268.9L1.952 268.9L1.952 279.908ZM1.952 264.305L1.952 266.545L24 260.593L24 258.673L1.952 252.721L1.952 254.961L20.032 259.633L1.952 264.305ZM1.952 249.408L24 249.408L24 238.112L21.952 238.112L21.952 247.296L14.08 247.296L14.08 239.52L12.064 239.52L12.064 247.296L4 247.296L4 238.4L1.952 238.4L1.952 249.408ZM1.952 232.141L1.952 234.189L24 234.189L24 232.077L6.368 232.077L24 222.765L24 220.749L1.952 220.749L1.952 222.861L19.648 222.861L1.952 232.141ZM24.32 208.908C24.32 205.228 21.824 202.06 17.088 202.06L1.91999 202.06L1.91999 204.172L17.088 204.172C20.544 204.172 22.176 206.412 22.176 208.908C22.176 211.404 20.544 213.644 17.088 213.644L1.91999 213.644L1.91999 215.756L17.088 215.756C21.824 215.756 24.32 212.588 24.32 208.908ZM1.95199 197.064L24 197.064L24 185.768L21.952 185.768L21.952 194.952L14.08 194.952L14.08 187.176L12.064 187.176L12.064 194.952L4 194.952L3.99999 186.056L1.95199 186.056L1.95199 197.064Z" fill="#383838"/>
<path d="M428.84 165H430.488V153.976H428.84V165ZM435.578 158.984C436.49 158.984 436.986 159.608 436.986 161.096V165H438.602V160.6C438.602 158.6 437.738 157.368 436.09 157.368C435.386 157.368 434.49 157.72 434.138 158.68V157.528L432.522 157.528V165H434.138V160.936C434.138 159.56 434.794 158.984 435.578 158.984ZM444.463 157.528L442.847 162.936L441.199 157.528H439.455L442.079 165H443.615L446.239 157.528H444.463ZM448.411 160.728C448.571 159.48 449.307 158.904 450.187 158.904C451.051 158.904 451.787 159.464 451.931 160.728H448.411ZM453.563 161.848C453.579 161.688 453.579 161.416 453.579 161.24C453.579 158.872 452.139 157.368 450.187 157.368C448.235 157.368 446.715 158.872 446.715 161.24C446.715 163.608 448.235 165.16 450.187 165.16C451.531 165.16 452.763 164.504 453.339 163.224L451.947 162.568C451.579 163.304 450.907 163.64 450.235 163.64C449.243 163.64 448.555 162.872 448.411 161.848H453.563ZM454.496 162.808C454.512 164.312 455.712 165.16 456.992 165.16C458.464 165.16 459.6 164.248 459.6 162.904C459.6 161.976 459.072 161.048 457.792 160.632L456.88 160.344C456.32 160.152 456.16 159.624 456.32 159.224C456.432 158.952 456.704 158.792 457.04 158.792C457.456 158.792 457.76 159.016 457.84 159.624H459.392C459.392 158.088 458.272 157.368 457.056 157.368C455.456 157.368 454.672 158.504 454.672 159.544C454.672 160.776 455.264 161.352 455.968 161.608L457.392 162.12C457.824 162.264 457.984 162.568 458 162.824C458.032 163.368 457.6 163.72 457.008 163.72C456.416 163.72 456.128 163.32 456.08 162.76V162.744H454.496V162.808ZM461.438 161.816C461.438 163.704 462.062 165 463.886 165H464.526V163.544H464.094C463.198 163.544 463.054 162.648 463.054 161.848V158.824H464.35V157.528H463.054V155.016L461.438 155.384V157.528H460.35V158.824H461.438V161.816ZM473.034 158.984C473.802 158.984 474.33 159.608 474.33 160.824V165H475.946V160.6C475.946 158.6 475.13 157.368 473.498 157.368C472.826 157.368 471.834 157.656 471.322 158.776C470.97 157.88 470.298 157.368 469.274 157.368C468.666 157.368 467.818 157.72 467.482 158.68V157.528H465.866V165H467.482V160.872C467.482 159.752 467.994 159.08 468.682 159.016C469.706 158.952 470.106 159.736 470.106 160.792V165H471.722V160.856C471.722 159.64 472.266 158.984 473.034 158.984ZM479.005 160.728C479.165 159.48 479.901 158.904 480.781 158.904C481.645 158.904 482.381 159.464 482.525 160.728H479.005ZM484.157 161.848C484.173 161.688 484.173 161.416 484.173 161.24C484.173 158.872 482.733 157.368 480.781 157.368C478.829 157.368 477.309 158.872 477.309 161.24C477.309 163.608 478.829 165.16 480.781 165.16C482.125 165.16 483.357 164.504 483.933 163.224L482.541 162.568C482.173 163.304 481.501 163.64 480.829 163.64C479.837 163.64 479.149 162.872 479.005 161.848H484.157ZM488.593 158.984C489.505 158.984 490.001 159.608 490.001 161.096V165H491.617V160.6C491.617 158.6 490.753 157.368 489.105 157.368C488.401 157.368 487.505 157.72 487.153 158.68V157.528H485.537V165H487.153V160.936C487.153 159.56 487.809 158.984 488.593 158.984ZM493.829 161.816C493.829 163.704 494.453 165 496.277 165H496.917V163.544H496.485C495.589 163.544 495.445 162.648 495.445 161.848V158.824H496.741V157.528H495.445V155.016L493.829 155.384V157.528H492.741V158.824H493.829V161.816Z" fill="#EDEDED"/>
<line x1="320.5" y1="88.5" x2="335.5" y2="88.5" stroke="#6FBD44" stroke-width="5" stroke-linecap="round"/>
<rect x="359.5" y="7.5" width="206" height="140" rx="9.5" fill="#6FBD44" stroke="#EDEDED" stroke-width="5"/>
<path d="M418.142 52.088C420.574 52.088 421.31 54.104 421.31 55.96C421.31 58.424 420.382 59.8 416.99 59.8H414.366V52.088H418.142ZM411.07 71L414.366 71V62.936H416.478L421.15 71H424.894L419.966 62.712C423.326 62.136 424.606 59.096 424.606 55.96C424.606 52.472 422.942 48.952 418.622 48.952H411.07V71ZM429.869 62.456C430.189 59.96 431.661 58.808 433.421 58.808C435.149 58.808 436.621 59.928 436.909 62.456H429.869ZM440.173 64.696C440.205 64.376 440.205 63.832 440.205 63.48C440.205 58.744 437.325 55.736 433.421 55.736C429.517 55.736 426.477 58.744 426.477 63.48C426.477 68.216 429.517 71.32 433.421 71.32C436.109 71.32 438.573 70.008 439.725 67.448L436.941 66.136C436.205 67.608 434.861 68.28 433.517 68.28C431.533 68.28 430.157 66.744 429.869 64.696H440.173ZM451.099 56.056L447.867 66.872L444.571 56.056H441.083L446.331 71H449.403L454.651 56.056H451.099ZM458.994 62.456C459.314 59.96 460.786 58.808 462.546 58.808C464.274 58.808 465.746 59.928 466.034 62.456H458.994ZM469.298 64.696C469.33 64.376 469.33 63.832 469.33 63.48C469.33 58.744 466.45 55.736 462.546 55.736C458.642 55.736 455.602 58.744 455.602 63.48C455.602 68.216 458.642 71.32 462.546 71.32C465.234 71.32 467.698 70.008 468.85 67.448L466.066 66.136C465.33 67.608 463.986 68.28 462.642 68.28C460.658 68.28 459.282 66.744 458.994 64.696H469.298ZM478.171 58.968C479.995 58.968 480.987 60.216 480.987 63.192V71H484.219V62.2C484.219 58.2 482.491 55.736 479.195 55.736C477.787 55.736 475.995 56.44 475.291 58.36V56.056L472.059 56.056V71H475.291V62.872C475.291 60.12 476.603 58.968 478.171 58.968ZM493.474 68.216C491.554 68.216 490.85 66.84 490.85 63.864V56.056H487.618V64.856C487.618 68.792 489.282 71.32 492.61 71.32C494.082 71.32 495.81 70.616 496.546 68.888V71H499.778V56.056H496.546V64.184C496.546 66.936 495.266 68.216 493.474 68.216ZM506.057 62.456C506.377 59.96 507.849 58.808 509.609 58.808C511.337 58.808 512.809 59.928 513.097 62.456L506.057 62.456ZM516.361 64.696C516.393 64.376 516.393 63.832 516.393 63.48C516.393 58.744 513.513 55.736 509.609 55.736C505.705 55.736 502.665 58.744 502.665 63.48C502.665 68.216 505.705 71.32 509.609 71.32C512.297 71.32 514.761 70.008 515.913 67.448L513.129 66.136C512.393 67.608 511.049 68.28 509.705 68.28C507.721 68.28 506.345 66.744 506.057 64.696H516.361ZM444.9 95.864V80.952H441.604V95.864C441.604 98.712 439.812 100.088 437.796 100.088C435.684 100.088 433.956 98.68 433.956 95.864V80.952H430.66V95.864C430.66 100.728 433.956 103.32 437.796 103.32C441.636 103.32 444.9 100.728 444.9 95.864ZM448.778 110.264H452.01V100.664C452.842 102.68 454.666 103.32 456.33 103.32C459.914 103.32 462.506 100.28 462.506 95.576C462.506 90.84 459.914 87.736 456.33 87.736C454.698 87.736 452.81 88.536 452.01 90.36V88.056H448.778V110.264ZM452.01 95.576C452.01 92.632 453.77 90.904 455.69 90.904C457.642 90.904 459.242 92.824 459.242 95.576C459.242 98.328 457.642 100.152 455.69 100.152C453.866 100.152 452.01 98.52 452.01 95.576ZM470.523 100.024C468.731 100.024 468.475 98.2 468.475 96.568V79.928L465.243 79.928V96.536C465.243 100.312 466.523 103 470.139 103H471.451V100.024H470.523ZM472.892 82.712C472.892 83.896 473.852 84.728 474.972 84.728C476.124 84.728 476.988 83.896 476.988 82.712C476.988 81.56 476.124 80.696 474.972 80.696C473.852 80.696 472.892 81.56 472.892 82.712ZM473.372 103V88.056H476.604V103H473.372ZM488.117 82.84V79.928H486.389C482.741 79.928 481.301 82.616 481.301 86.584V88.056H478.965V90.648H481.301V103H484.533V90.648H487.317V88.056H484.533V86.488C484.501 84.728 484.757 82.84 487.061 82.84H488.117ZM490.517 96.632C490.517 100.408 491.765 103 495.413 103H496.693V100.088H495.829C494.037 100.088 493.749 98.296 493.749 96.696V90.648H496.341V88.056H493.749V83.032L490.517 83.768V88.056H488.341V90.648H490.517V96.632Z" fill="#EDEDED"/>
</svg>
