<?xml version="1.0" encoding="UTF-8"?>
<svg id="a" data-name="Layer 1" xmlns="http://www.w3.org/2000/svg" viewBox="0 0 400 12">
  <path fill="currentColor" d="m350,0c-10.62585,0-16.85522,1.39734-26.66052,5.06329-.17053.06378-1.40564.52667-1.76624.66119-8.34973,3.1153-13.40967,4.27551-21.57324,4.27551-10.27112,0-15.36182-1.2218-24.62866-4.92853-9.48315-3.79327-14.80908-5.07147-25.37134-5.07147-10.62585,0-16.85522,1.39734-26.66052,5.06329-.17053.06378-1.40564.52667-1.76624.66119-8.34973,3.1153-13.40967,4.27551-21.57324,4.27551-10.27112,0-15.36182-1.2218-24.62866-4.92853-9.48315-3.79327-14.80908-5.07147-25.37134-5.07147-10.62585,0-16.85522,1.39734-26.66052,5.06329-.17053.06378-1.40564.52667-1.76624.66119-8.34973,3.1153-13.40967,4.27551-21.57324,4.27551-10.27112,0-15.36182-1.2218-24.62866-4.92853C65.88818,1.2782,60.56226,0,50,0c-10.62585,0-16.85522,1.39734-26.66052,5.06329-.17053.06378-1.40564.52667-1.76624.66119C13.22351,8.83978,8.16351,10,0,10v2c8.44049,0,13.71832-1.21014,22.27246-4.40167.36218-.13519,1.59814-.59833,1.76746-.66168,9.59985-3.58911,15.60706-4.93665,25.96008-4.93665,10.27112,0,15.36182,1.22174,24.62866,4.92847,9.48315,3.79327,14.80908,5.07153,25.37134,5.07153,8.44043,0,13.71826-1.21014,22.27246-4.40167.36218-.13519,1.59814-.59833,1.76746-.66168,9.59985-3.58911,15.60706-4.93665,25.96008-4.93665,10.27112,0,15.36182,1.22174,24.62866,4.92847,9.48315,3.79327,14.80908,5.07153,25.37134,5.07153,8.44043,0,13.71826-1.21014,22.27246-4.40167.36218-.13519,1.59814-.59833,1.76746-.66168,9.59985-3.58911,15.60706-4.93665,25.96008-4.93665,10.27112,0,15.36182,1.22174,24.62866,4.92847,9.48315,3.79327,14.80908,5.07153,25.37134,5.07153,8.44043,0,13.71826-1.21014,22.27246-4.40167.36218-.13519,1.59814-.59833,1.76746-.66168,9.59985-3.58911,15.60706-4.93665,25.96008-4.93665,10.27112,0,15.36182,1.22174,24.62866,4.92847,9.48315,3.79327,14.80908,5.07153,25.37134,5.07153v-2c-10.27112,0-15.36182-1.2218-24.62866-4.92853-9.48315-3.79327-14.80908-5.07147-25.37134-5.07147Z"/>
</svg>