<svg xmlns="http://www.w3.org/2000/svg" viewBox="0 0 105.97 102.01">
  <g id="Layer_2" data-name="Layer 2">
    <g id="Layer_1-2" data-name="Layer 1">
      <path d="M44.71,7.84a9.5,9.5,0,0,1,16.55,0l8.12,14.39a14.53,14.53,0,0,0,9.76,7.1l16.2,3.27a9.5,9.5,0,0,1,5.12,15.74L89.27,60.51A14.51,14.51,0,0,0,85.54,72l1.9,16.42a9.5,9.5,0,0,1-13.39,9.73L59,91.25a14.53,14.53,0,0,0-12.07,0l-15,6.88A9.5,9.5,0,0,1,18.53,88.4L20.43,72A14.51,14.51,0,0,0,16.7,60.51L5.51,48.34A9.5,9.5,0,0,1,10.63,32.6l16.2-3.27a14.51,14.51,0,0,0,9.76-7.1Z" style="fill: none;stroke: #f3b945;stroke-miterlimit: 10;stroke-width: 6px"/>
    </g>
  </g>
</svg>
