<?xml version="1.0" encoding="UTF-8"?>
<svg id="b" data-name="Layer 2" xmlns="http://www.w3.org/2000/svg" viewBox="0 0 2129.84 55.21">
  <defs>
    <style>
      .d {
        fill: #eeeef0;
      }
    </style>
  </defs>
  <g id="c" data-name="Layer 1">
    <path class="d" d="m2129.84,0c-108.4,0-224.2,51.64-333.02,33.66-4.22-.7-8.42-1.47-12.62-2.29l-.31-.06c-33.77-6.65-66.87-16.05-101.37-18.15-48.88-2.96-95.86,7.49-143.09,18.44-124.86,28.96-237.22,2.38-360.15-20.61C1142.28,4.07,1102.78,0,1064.98,0h0s-.04,0-.06,0c-.02,0-.04,0-.06,0h0c-108.37.04-224.12,51.63-332.9,33.66-4.22-.7-8.42-1.47-12.62-2.29l-.31-.06c-33.77-6.65-66.87-16.05-101.37-18.15-48.88-2.96-95.86,7.49-143.09,18.44-124.86,28.96-237.22,2.38-360.15-20.61C77.38,4.07,37.83,0,0,0,0,0,0,55.21,0,55.21h2129.84s0-55.21,0-55.21Z"/>
  </g>
</svg>