<?xml version="1.0" encoding="UTF-8"?>
<svg id="b" data-name="Layer 2" xmlns="http://www.w3.org/2000/svg" viewBox="0 0 500 115">
  <defs>
    <style>
      .d {
        fill: #eeeef0;
      }
    </style>
  </defs>
  <g id="c" data-name="Layer 1">
    <g>
      <g>
        <path class="d" d="m129.51,78.99c1.18-2.91,3.28-4.91,3.28-4.91,0,0,5.37,4.82,15.38,4.82,5.46,0,9.37-2.73,9.74-6.73.36-3-2.09-5.28-7.46-7.01l-6.55-1.91c-7.64-2.46-13.01-7.01-12.47-15.56.82-12.29,10.37-20.11,24.57-20.11,7.55,0,12.83,2.18,14.83,3.28,3.28,1.64,4.73,3.46,2,9.28-1.09,2.18-2.64,3.91-2.64,3.91,0,0-6.28-4.1-14.65-4.1-5.55,0-8.65,2.64-9.19,6.55-.36,3.37,2.64,5.1,6.82,6.28l6.46,1.82c10.56,3.09,14.2,9.19,13.65,16.56-.91,13.01-11.47,20.11-26.21,20.11-6.82,0-12.47-2-14.38-3-4.19-1.91-5.28-4.46-3.19-9.28Z"/>
        <path class="d" d="m177.42,71.13c1.06-7.27,2.57-14.63,3.46-22.07.18-2.3-.53-3.37-.97-4.08.8-1.6,3.46-4.26,8.24-4.26,5.58,0,7.89,2.66,7.8,7-.27,5.32-3.63,18.53-3.81,24.2-.18,3.9,1.51,7,5.58,7,4.79,0,7.98-4.25,9.31-6.29.98-6.2,2.04-14.71,2.93-22.69.44-3.72-1.24-8.33,5.5-8.33h5.41c3.9,0,4.61,2.84,3.9,7.09-1.6,10.02-4.17,30.76-4.52,33.77s.35,4.25.71,4.96c-.35,1.24-3.19,3.81-7.89,3.81-5.67,0-7.18-2.93-7.45-5.58-.27-1.51-.09-3.01.09-4.43h-.62c-.8,3.01-5.23,10.02-15.34,10.02-12.76,0-13.38-12.06-12.32-20.12Z"/>
        <path class="d" d="m284.34,93.11c10.19,0,13.83-7.44,14.98-15.42h-.71s-3.99,7.53-14.36,7.53c-7.18,0-16.58-5.05-15.51-20.12.8-13.74,8.15-24.38,20.3-24.38,8.69,0,11.79,5.85,12.14,10.37h.71l1.33-5.58c.89-2.84,2.57-3.9,4.7-3.9h4.17c4.34,0,4.17,3.63,3.81,5.94-.62,4.61-3.28,25.26-4.25,30.94-2.57,15.69-9.48,26.06-27.04,26.06-8.86,0-15.16-3.01-15.16-8.24.09-2.3,1.33-5.05,2.93-6.38,0,0,4.61,3.19,11.97,3.19Zm15.07-30.05l.27-3.19c-.27-1.6-1.86-6.91-6.82-6.91s-9.13,4.26-9.75,12.59c-.35,7,3.46,9.57,6.91,9.57,4.96,0,8.51-4.61,9.4-12.06Z"/>
        <path class="d" d="m343.83,40.72c12.59,0,17.82,6.83,17.37,15.25-.27,10.1-10.1,15.33-19.41,15.33-7.18,0-9.84-3.28-9.84-3.28l-.35.27c-.35,5.5,2.75,11.52,11.7,11.52,6.83,0,12.32-3.9,12.32-3.9,1.86,1.86,2.57,3.9,2.48,6.21-.36,4.87-6.83,9.13-17.29,9.13-16.58,0-22.78-11.43-22.07-23.58.89-15.78,10.73-26.95,25.08-26.95Zm-5.32,22.52c5.14,0,9.84-1.95,9.93-6.65.09-2.92-2.04-4.96-5.67-4.96-5.94,0-9.22,4.79-10.02,8.86-.09.71-.27,1.68-.27,1.68.44.18,2.48,1.06,6.03,1.06Z"/>
        <path class="d" d="m364.33,82.44c1.27-8.74,5.73-42.5,5.92-45.14.36-3.73-.18-8.83,6.37-8.83h18.29c14.74,0,22.48,8.74,20.84,21.2-1.18,8.46-6.92,14.56-13.83,17.38l6.01,9.83c1.55,2.64,3.28,2.73,5.73,2.73.82,8.83-3,11.65-8.56,11.65s-7.83-3-9.55-7.37l-6.73-14.2h-7.73c-.27,2-1.73,11.28-1.91,14.38-.27,4.73-1.46,6.28-5.19,6.28h-5.46c-5.1,0-4.73-4.46-4.19-7.92Zm25.21-22.75c6.82,0,10.83-3.28,11.74-9.65.73-5.28-1.37-10.47-9.01-10.47h-7.83c-.73,4.73-2,15.74-2.64,20.11h7.74Z"/>
        <path class="d" d="m419.43,59.42c2.18-17.93,11.74-31.85,31.21-31.85,17.02,0,25.84,13.83,23.75,31.85-2.18,18.02-12.56,31.85-31.21,31.85s-26.03-13.74-23.75-31.85Zm39.77-.09c1.09-10.01-.55-18.84-9.92-18.84s-13.74,8.83-14.83,18.84c-1.18,9.83.36,19.02,10.01,19.02s13.47-9.28,14.74-19.02Z"/>
        <path class="d" d="m484.21,37.4c.36-3.73-.82-8.92,5.82-8.92h5.55c5.1,0,4.64,4.37,4.1,7.83-1.18,7.55-5.28,39.68-5.73,45.14-.18,3.73,1.09,8.92-5.73,8.92h-5.46c-5.1,0-4.73-4.46-4.19-7.92,1.27-8.74,4.91-38.4,5.64-45.05Z"/>
        <path class="d" d="m231.96,49.68c.27-2.22-.44-4.52-.98-5.41.98-1.6,3.19-3.55,7.45-3.55,6.47,0,7.53,4.08,6.38,10.46h.53c2.04-5.67,7.36-10.46,13.39-10.46,7.18,0,9.4,4.79,8.33,11.79-.98,6.21-5.05,8.95-8.86,8.95-2.39,0-3.55-.71-4.08-1.06,1.06-3.99.35-7.53-2.22-7.53-3.01,0-5.94,3.81-6.91,8.69-1.42,7.98-1.86,16.13-2.66,23.22-.44,4.08-1.77,5.58-5.41,5.58h-5.23c-3.46,0-5.05-2.22-4.34-6.65,1.24-8.42,3.72-26.77,4.61-34.04Z"/>
      </g>
      <g>
        <path class="d" d="m100.39,20.37c-6.42-5.04-13.88-7.9-21.62-8.84,0,0-.19-.01-.19-.01-.54,0-1,.31-1.18.72-.47,1.51-1.13,3.13-1.9,5.04-.23.56-.46,1.14-.71,1.76l-3.17,8.46c-.07.2-1.69,4.74-1.76,4.94l-.02.23c0,.25.07.43.2.57.13.14.34.26.65.32h0c8.44,2.14,15.95,6.8,19.72,14.64,6.29,13.04,2.28,27.45-12.54,35.92-4.08,2.33-8.82,3.35-13.54,4.01-.28.08-.52.22-.82.54-.05.06-.11.12-.16.18-.01.02-.03.03-.04.05h0c-1.29,1.44-2.57,2.88-3.85,4.31,0,0,0,0,0,0l-.74.83s-.05.05-.07.08c-.76.85-1.52,1.7-2.27,2.55-.42.47-.84.94-1.25,1.41-.42.47-.84.95-1.27,1.42-.42.48-.85.95-1.27,1.43-.43.48-.85.95-1.28,1.43-.43.48-.85.96-1.28,1.43-.43.48-.86.96-1.29,1.44-.2.23-.41.45-.61.68-.1.11-.21.23-.31.34-.05.06-.1.11-.16.17-.04.04-.08.08-.11.14-.04.08-.04.19,0,.27.05.11.14.18.26.18.16,0,.32.02.48.02.32.02.64.03.96.04.64.02,1.28.03,1.92.03.06,0,.12,0,.17,0,9.62,0,19.23-2.14,27.96-6.12,16.28-7.39,29.48-21.72,34.09-38.67,1.07-3.64,1.61-7.46,1.61-11.3v-.1c-.01-11.56-4.87-23.26-14.61-30.54Z"/>
        <path class="d" d="m28.21,90.67h0s0,0,0,0h0s.27-.7.27-.7h0s0,0,0,0c.74-1.93,1.48-3.88,2.22-5.89.03-.11.04-.21.04-.3,0-.2-.06-.35-.17-.48-.06-.07-.14-.14-.23-.2-9.69-4.53-17.77-11.86-20.78-22.1-2.67-9.09.57-18.13,5.09-26.31l1.17-2.06c.09-.15.17-.3.26-.44.01-.02.02-.04.03-.06h0s0,0,0,0h0s0,0,0,0c0,0,0,0,0,0,.04-.04.08-.07.11-.11.36-.35.04-.86-.37-.86-.1,0-.21.03-.32.11C5.55,38.65.01,50.81,0,62.94v.08c0,.43,0,.86.02,1.29.29,15.47,9.85,28.48,23.21,35.89.17.06.33.08.47.08.38,0,.66-.17.87-.55,1.23-2.95,2.44-5.96,3.63-9.05h0Z"/>
        <path class="d" d="m82.75,53.77c-2.66-4.08-7.45-3.04-11.67-3.1-6.36.36-13.89,1.6-9.44-7.42,2.81-7.1,5.11-14.38,7.84-21.51,1.87-5.6,5.98-11.3,4.39-17.39-.82-2.59-3.39-4.67-6.31-4.32-3.38.53-5.19,3.29-7.19,5.64-4.12,4.92-8.55,9.84-12.86,14.56-7.73,8.55-15.47,17.09-23.2,25.64-1.31,1.45-2.63,2.9-3.94,4.35-1.59,1.76-3.56,3.45-3.67,5.92-.11,2.42.85,4.64,2.92,6.12,3.74,2.55,8.59,1.72,12.92,1.76,2.13-.11,4.54-.18,6.47.83,2.67,1.41,1.08,4.5.38,6.56-1.02,3-2.06,5.98-3.13,8.96-2.73,7.67-5.65,15.28-8.82,22.79-1.19,3.17-2.51,8.17.67,10.73,2.34,1.88,5.86,1.14,7.99-.67,14.21-15.47,27.89-31.52,42.38-46.79,3.36-3.17,7.26-8.14,4.27-12.67Z"/>
      </g>
    </g>
  </g>
</svg>