<?xml version="1.0" encoding="UTF-8"?>
<svg id="b" data-name="Layer 2" xmlns="http://www.w3.org/2000/svg" viewBox="0 0 510 114.99999">
  <defs>
    <style>
      .d {
        fill: #eeeef0;
      }
    </style>
  </defs>
  <g id="c" data-name="Layer 1">
    <g>
      <g>
        <path class="d" d="m139.50785,78.91127c1.18308-2.91212,3.27628-4.91355,3.27628-4.91355,0,0,5.36947,4.82237,15.37952,4.82237,5.46065,0,9.37349-2.72975,9.73823-6.73377.36358-3.0033-2.09377-5.27829-7.46266-7.00732l-6.55256-1.9114c-7.64446-2.4562-13.01335-7.00732-12.4674-15.56131.81893-12.28561,10.37421-20.11128,24.57122-20.11128,7.55327,0,12.83156,2.1838,14.83299,3.2757,3.27685,1.63785,4.73234,3.45807,2.00259,9.28231-1.0919,2.1838-2.63972,3.91283-2.63972,3.91283,0,0-6.279-4.0952-14.6512-4.0952-5.55126,0-8.64517,2.63972-9.19112,6.55256-.36416,3.36688,2.63914,5.09592,6.82495,6.279l6.46195,1.82022c10.55542,3.09449,14.19586,9.19112,13.64991,16.56318-.90953,13.01277-11.46611,20.11128-26.20907,20.11128-6.82495,0-12.4674-2.00143-14.37822-3.0033-4.18639-1.91025-5.27829-4.45878-3.18567-9.28231Z"/>
        <path class="d" d="m187.41583,71.05213c1.0642-7.26933,2.57047-14.62638,3.45691-22.07231.17775-2.30384-.53095-3.36804-.97417-4.07673.79757-1.5963,3.45691-4.25564,8.2435-4.25564,5.58416,0,7.88915,2.65934,7.80028,7.0027-.26663,5.31868-3.63467,18.52652-3.81126,24.19955-.17775,3.90014,1.50627,7.0027,5.58416,7.0027,4.78659,0,7.97687-4.25449,9.30654-6.29401.97532-6.20398,2.03952-14.7141,2.92597-22.69213.44322-3.72239-1.2408-8.33238,5.49528-8.33238h5.40756c3.90014,0,4.60883,2.83709,3.90014,7.09158-1.5963,10.01639-4.16676,30.75903-4.52111,33.77272s.35435,4.25449.7087,4.96318c-.35435,1.24195-3.19029,3.81242-7.888,3.81242-5.67303,0-7.18046-2.92597-7.44593-5.58416-.26663-1.50742-.08888-3.01484.08772-4.43224h-.61982c-.79757,3.01369-5.22981,10.01639-15.33508,10.01639-12.76461,0-13.38443-12.05592-12.32139-20.12166Z"/>
        <path class="d" d="m294.33844,93.03441c10.19415,0,13.82881-7.44477,14.98073-15.4228h-.7087s-3.98901,7.5348-14.35976,7.5348c-7.18046,0-16.57588-5.05321-15.51283-20.12166.79757-13.73994,8.15462-24.37731,20.29942-24.37731,8.68672,0,11.78929,5.85078,12.14364,10.3719h.7087l1.32967-5.58416c.88645-2.83709,2.57047-3.90129,4.69771-3.90129h4.16676c4.34336,0,4.16561,3.63467,3.81126,5.93966-.62097,4.60883-3.27916,25.2626-4.25449,30.93563-2.57047,15.68943-9.4843,26.06017-27.03549,26.06017-8.86447,0-15.15848-3.01369-15.15848-8.2435.08888-2.30499,1.32967-5.05206,2.92597-6.38173,0,0,4.60883,3.19029,11.96589,3.19029Zm15.06961-30.04918l.26547-3.19029c-.26547-1.5963-1.86177-6.91498-6.82495-6.91498-4.87546,0-9.12995,4.25564-9.75092,12.58802-.35435,7.0027,3.45691,9.57317,6.91383,9.57317,4.96434,0,8.51013-4.60999,9.39657-12.05592Z"/>
        <path class="d" d="m353.8282,40.64745c12.58686,0,17.81667,6.82611,17.37345,15.24736-.26547,10.10412-10.10412,15.33393-19.41181,15.33393-7.18046,0-9.8398-3.27916-9.8398-3.27916l-.35435.26547c-.35435,5.49644,2.74822,11.52382,11.70041,11.52382,6.82611,0,12.32139-3.90014,12.32139-3.90014,1.86177,1.86177,2.57047,3.90014,2.48275,6.20513-.3555,4.87431-6.82611,9.12995-17.28573,9.12995-16.57588,0-22.78101-11.43494-22.07116-23.57858.88645-15.7783,10.72509-26.94777,25.08485-26.94777Zm-5.31868,22.51553c5.14209,0,9.8398-1.95065,9.92867-6.64836.08772-2.92481-2.03952-4.96318-5.67303-4.96318-5.93966,0-9.21882,4.78659-10.01639,8.86332-.08888.70985-.26663,1.68402-.26663,1.68402.44322.17775,2.48275,1.0642,6.02738,1.0642Z"/>
        <path class="d" d="m374.33143,82.36934c1.27427-8.73636,5.73421-42.49869,5.91542-45.13726.36474-3.73162-.18121-8.82754,6.37019-8.82754h18.29221c14.74296,0,22.47745,8.73636,20.83959,21.20433-1.18308,8.4628-6.91614,14.56059-13.83227,17.38153l6.0066,9.82826c1.54667,2.63857,3.2757,2.72975,5.73305,2.72975.81835,8.82754-3.0033,11.64847-8.55514,11.64847-5.36832,0-7.82567-3.0033-9.5547-7.3709l-6.73492-14.19701h-7.73448c-.27355,2.00259-1.72903,11.28489-1.9114,14.37938-.27355,4.73118-1.45664,6.279-5.1871,6.279h-5.46065c-5.09592,0-4.73234-4.45994-4.18639-7.91801Zm25.20835-22.751c6.82495,0,10.83013-3.2757,11.73966-9.64589.72832-5.27829-1.36545-10.46539-9.00991-10.46539h-7.82567c-.72832,4.73234-2.00259,15.74368-2.63972,20.11128h7.73564Z"/>
        <path class="d" d="m429.42923,59.34595c2.18495-17.92748,11.73966-31.85093,31.21495-31.85093,17.01794,0,25.84433,13.83227,23.75171,31.85093-2.1838,18.01866-12.55801,31.85093-31.2138,31.85093-17.83745,0-26.02785-13.74109-23.75287-31.85093Zm39.76894-.09118c1.0919-10.01062-.54595-18.83816-9.91944-18.83816-9.82826,0-13.74109,8.82754-14.83299,18.83816-1.18308,9.82826.36358,19.01938,10.00947,19.01938,9.55586,0,13.46869-9.28231,14.74296-19.01938Z"/>
        <path class="d" d="m494.20939,37.32327c.36474-3.73162-.81835-8.91872,5.82424-8.91872h5.55184c5.09592,0,4.64115,4.3676,4.0952,7.82682-1.18308,7.55327-5.27829,39.6766-5.73305,45.13726-.18237,3.73162,1.0919,8.91872-5.73305,8.91872h-5.46065c-5.09592,0-4.73234-4.45994-4.18639-7.91801,1.27427-8.73636,4.9147-38.40349,5.64187-45.04607Z"/>
        <path class="d" d="m241.95611,49.6008c.26547-2.21612-.44322-4.52111-.97532-5.40756.97532-1.59514,3.19144-3.54579,7.44593-3.54579,6.4706,0,7.5348,4.07789,6.38288,10.46077h.53095c2.03952-5.67303,7.35821-10.46077,13.38559-10.46077,7.1793,0,9.39542,4.78774,8.33238,11.78929-.97532,6.20513-5.05321,8.95335-8.86447,8.95335-2.39387,0-3.54579-.7087-4.07789-1.0642,1.0642-3.98786.35435-7.53365-2.21612-7.53365-3.01369,0-5.93851,3.81126-6.91383,8.68672-1.41855,7.97687-1.86177,16.13265-2.65934,23.22423-.44322,4.07673-1.77289,5.58416-5.40641,5.58416h-5.22981c-3.45691,0-5.05321-2.21612-4.34336-6.64836,1.2408-8.42125,3.72239-26.77002,4.60883-34.0382Z"/>
      </g>
      <g>
        <path class="d" d="m100.3949,20.37017c-6.42395-5.03589-13.88025-7.90021-21.62396-8.83691,0,0-.18805-.01324-.19037-.01324-.53717,0-1.00415.30676-1.18018.71906-.47455,1.51056-1.12836,3.12775-1.90149,5.04016-.22595.55872-.46204,1.14264-.70929,1.76111l-3.17273,8.45782c-.07001.19812-1.6875,4.74237-1.75781,4.94116l-.01935.22662c.0014.25342.07123.42725.20215.56982.13135.1416.34222.25641.64697.3233l-.00024.00116c8.4411,2.14075,15.94696,6.79926,19.72375,14.63434,6.28662,13.04193,2.27826,27.44971-12.54175,35.92041-4.07568,2.32953-8.8233,3.35229-13.54395,4.01251-.27814.07861-.51776.21729-.82141.53766-.05328.05945-.10706.11957-.16034.17902-.01331.01562-.02673.03156-.04034.04791l-.00146-.00122c-1.29205,1.44293-2.57471,2.8808-3.85486,4.31616-.00049.00006-.00104.00018-.00153.00024l-.74017.8302c-.02295.02576-.04633.05182-.06927.07758-.75916.85162-1.51569,1.70068-2.2702,2.54749-.41809.4693-.83618.9386-1.25433,1.40778-.42212.47369-.8443.94739-1.26648,1.42096-.42389.47546-.84784.95081-1.27191,1.42603-.42548.47687-.85107.95361-1.27686,1.43018-.42694.47791-.854.95569-1.28131,1.43329-.42822.47864-.85669.95709-1.28534,1.43536-.20386.22748-.40784.4549-.61182.68225-.10309.11499-.20624.22992-.30939.34479-.0517.05756-.10376.11469-.15503.17261-.03943.04456-.08423.08276-.10974.13843-.0387.08459-.03564.18549.00049.27118.04602.10925.13971.17578.25659.18274.15875.00934.31769.01697.47656.02454.32037.01532.64093.0282.96149.03864.64111.02087,1.28253.03217,1.92395.03387.05774.00018.11548.00024.17316.00024,9.61505,0,19.22571-2.14374,27.96326-6.11578,16.2796-7.39105,29.47546-21.7168,34.08557-38.67334,1.07086-3.63922,1.60938-7.4635,1.61407-11.30322v-.10077c-.0144-11.5614-4.86865-23.26086-14.6051-30.54211Z"/>
        <path class="d" d="m28.20575,90.67406h.00006c-.00043.0011-.00092.00226-.00134.00336l.0014-.00311.27008-.70056h.00122c-.00104-.00049-.0022-.00098-.00323-.00146.74219-1.92847,1.4812-3.88464,2.21863-5.88672.02734-.10852.03967-.20715.03967-.29602-.0014-.19879-.05664-.34821-.16895-.48492-.05896-.07098-.13678-.13837-.23474-.20001-9.68988-4.52728-17.77057-11.85706-20.78168-22.09576-2.67365-9.09137.56848-18.13177,5.08569-26.31213l1.17084-2.06049c.08618-.14716.17004-.29657.25677-.44312.01099-.0188.02002-.03845.02814-.05829l.00427-.00751-.00024-.00031-.00037.00037-.00012.00012c0-.00006.00006-.00006.00006-.00012.03784-.03644.07678-.07367.11481-.10999.3573-.34576.04095-.85541-.36786-.85541-.10266,0-.21124.03217-.31635.10718C5.55261,38.65038.01178,50.80565,0,62.94371v.07764c.00037.42969.00775.85822.02203,1.2876.29449,15.47046,9.84607,28.48248,23.20758,35.88586.17017.05762.3277.08441.47046.08441.37683-.00604.65991-.16675.87347-.55127,1.22906-2.95422,2.43597-5.96222,3.6322-9.05383v-.00006Z"/>
        <path class="d" d="m82.75153,53.77336c-2.66034-4.07678-7.44818-3.03558-11.66901-3.0965-6.36255.36273-13.88916,1.59717-9.43982-7.41589,2.80542-7.10443,5.11285-14.37903,7.83606-21.51257,1.86664-5.60095,5.97961-11.30328,4.39081-17.38574-.82214-2.59448-3.38812-4.67358-6.31348-4.32422-3.37537.5282-5.18542,3.28735-7.18695,5.6441-4.11664,4.91956-8.54913,9.83826-12.86072,14.55573-7.73438,8.54633-15.46875,17.09265-23.20306,25.63898-1.31268,1.45044-2.62537,2.90094-3.93805,4.35144-1.59216,1.75928-3.5575,3.45166-3.66742,5.91754-.10803,2.42474.85046,4.64496,2.91522,6.12262,3.73718,2.55243,8.59119,1.72308,12.91888,1.7627,2.13043-.10956,4.53729-.18329,6.47418.8327,2.67426,1.40741,1.07867,4.49518.37573,6.56-1.01959,2.99506-2.05994,5.98358-3.12524,8.96393-2.72913,7.67029-5.64734,15.27917-8.82025,22.78766-1.19147,3.16882-2.50952,8.16882.67407,10.7251,2.33936,1.87842,5.86462,1.1449,7.99011-.66547,14.21014-15.47174,27.8916-31.51562,42.38177-46.78864,3.3609-3.17023,7.2569-8.13873,4.26715-12.67346Z"/>
      </g>
    </g>
  </g>
</svg>